<svg xmlns="http://www.w3.org/2000/svg" xmlns:xlink="http://www.w3.org/1999/xlink" width="500" zoomAndPan="magnify" viewBox="0 0 375 374.999991" height="500" preserveAspectRatio="xMidYMid meet" version="1.0"><defs><clipPath id="cba31f2de9"><path d="M 189 91 L 293 91 L 293 225 L 189 225 Z M 189 91 " clip-rule="nonzero"/></clipPath><clipPath id="8c1e69d57b"><path d="M 131.808594 198.769531 L 218.097656 15.835938 L 319.453125 63.648438 L 233.164062 246.582031 Z M 131.808594 198.769531 " clip-rule="nonzero"/></clipPath><clipPath id="5ac882a3f6"><path d="M 131.808594 198.769531 L 218.097656 15.835938 L 319.453125 63.648438 L 233.164062 246.582031 Z M 131.808594 198.769531 " clip-rule="nonzero"/></clipPath><clipPath id="f052190442"><path d="M 163 43 L 277 43 L 277 224 L 163 224 Z M 163 43 " clip-rule="nonzero"/></clipPath><clipPath id="edf09638cc"><path d="M 131.808594 198.769531 L 218.097656 15.835938 L 319.453125 63.648438 L 233.164062 246.582031 Z M 131.808594 198.769531 " clip-rule="nonzero"/></clipPath><clipPath id="802b0d6300"><path d="M 131.808594 198.769531 L 218.097656 15.835938 L 319.453125 63.648438 L 233.164062 246.582031 Z M 131.808594 198.769531 " clip-rule="nonzero"/></clipPath><clipPath id="f81ac43044"><path d="M 250 40 L 263 40 L 263 89 L 250 89 Z M 250 40 " clip-rule="nonzero"/></clipPath><clipPath id="9b627da039"><path d="M 131.808594 198.769531 L 218.097656 15.835938 L 319.453125 63.648438 L 233.164062 246.582031 Z M 131.808594 198.769531 " clip-rule="nonzero"/></clipPath><clipPath id="5b37bcad07"><path d="M 131.808594 198.769531 L 218.097656 15.835938 L 319.453125 63.648438 L 233.164062 246.582031 Z M 131.808594 198.769531 " clip-rule="nonzero"/></clipPath><clipPath id="fc042b1203"><path d="M 236 53 L 249 53 L 249 106 L 236 106 Z M 236 53 " clip-rule="nonzero"/></clipPath><clipPath id="ad514373b9"><path d="M 131.808594 198.769531 L 218.097656 15.835938 L 319.453125 63.648438 L 233.164062 246.582031 Z M 131.808594 198.769531 " clip-rule="nonzero"/></clipPath><clipPath id="7b2297f51d"><path d="M 131.808594 198.769531 L 218.097656 15.835938 L 319.453125 63.648438 L 233.164062 246.582031 Z M 131.808594 198.769531 " clip-rule="nonzero"/></clipPath><clipPath id="ed59dae9d6"><path d="M 224 72 L 235 72 L 235 116 L 224 116 Z M 224 72 " clip-rule="nonzero"/></clipPath><clipPath id="5d74f10d56"><path d="M 131.808594 198.769531 L 218.097656 15.835938 L 319.453125 63.648438 L 233.164062 246.582031 Z M 131.808594 198.769531 " clip-rule="nonzero"/></clipPath><clipPath id="1d0546bdad"><path d="M 131.808594 198.769531 L 218.097656 15.835938 L 319.453125 63.648438 L 233.164062 246.582031 Z M 131.808594 198.769531 " clip-rule="nonzero"/></clipPath><clipPath id="cd1b592f75"><path d="M 95.28125 0.0390625 L 225.789062 0.0390625 L 225.789062 118.09375 L 95.28125 118.09375 Z M 95.28125 0.0390625 " clip-rule="nonzero"/></clipPath><clipPath id="68d6610fae"><path d="M 223.875 24.984375 C 219.769531 11.035156 206.507812 0.0390625 190.828125 0.0390625 C 177.664062 0.0390625 166.226562 7.464844 160.441406 18.375 C 154.660156 7.464844 143.226562 0.0390625 130.0625 0.0390625 C 113.660156 0.0390625 99.3125 11.035156 96.496094 26.996094 C 89.355469 67.46875 134.625 99.148438 160.546875 118.09375 C 184.511719 100.578125 235.621094 64.867188 223.875 24.984375 Z M 223.875 24.984375 " clip-rule="nonzero"/></clipPath><clipPath id="e8fb6cd41c"><path d="M 0.71875 0.0390625 L 130.789062 0.0390625 L 130.789062 118.09375 L 0.71875 118.09375 Z M 0.71875 0.0390625 " clip-rule="nonzero"/></clipPath><clipPath id="c4ed4fa8c0"><path d="M 128.875 24.984375 C 124.769531 11.035156 111.507812 0.0390625 95.828125 0.0390625 C 82.664062 0.0390625 71.226562 7.464844 65.441406 18.375 C 59.660156 7.464844 48.226562 0.0390625 35.0625 0.0390625 C 18.660156 0.0390625 4.3125 11.035156 1.496094 26.996094 C -5.644531 67.46875 39.625 99.148438 65.546875 118.09375 C 89.511719 100.578125 140.621094 64.867188 128.875 24.984375 Z M 128.875 24.984375 " clip-rule="nonzero"/></clipPath><clipPath id="8cdaaaff62"><rect x="0" width="131" y="0" height="119"/></clipPath><clipPath id="2a0c433a82"><path d="M 0.679688 29 L 193 29 L 193 251.039062 L 0.679688 251.039062 Z M 0.679688 29 " clip-rule="nonzero"/></clipPath><clipPath id="a1446cd97a"><path d="M 104.195312 254.953125 L -6.296875 85.535156 L 87.570312 24.316406 L 198.0625 193.734375 Z M 104.195312 254.953125 " clip-rule="nonzero"/></clipPath><clipPath id="e8cb0f4c73"><path d="M 24 80 L 145 80 L 145 199 L 24 199 Z M 24 80 " clip-rule="nonzero"/></clipPath><clipPath id="148f4a7241"><path d="M 104.195312 225.953125 L -6.296875 56.535156 L 87.570312 -4.683594 L 198.0625 164.734375 Z M 104.195312 225.953125 " clip-rule="nonzero"/></clipPath><clipPath id="d6479e677d"><path d="M 197.941406 164.8125 L 87.449219 -4.605469 L -6.417969 56.613281 L 104.074219 226.03125 Z M 197.941406 164.8125 " clip-rule="nonzero"/></clipPath><clipPath id="0bf2473c3a"><path d="M 34 30 L 163 30 L 163 198 L 34 198 Z M 34 30 " clip-rule="nonzero"/></clipPath><clipPath id="8c043c0542"><path d="M 104.195312 225.953125 L -6.296875 56.535156 L 87.570312 -4.683594 L 198.0625 164.734375 Z M 104.195312 225.953125 " clip-rule="nonzero"/></clipPath><clipPath id="f83cb00a86"><path d="M 197.941406 164.8125 L 87.449219 -4.605469 L -6.417969 56.613281 L 104.074219 226.03125 Z M 197.941406 164.8125 " clip-rule="nonzero"/></clipPath><clipPath id="5593d73787"><path d="M 49 25 L 64 25 L 64 72 L 49 72 Z M 49 25 " clip-rule="nonzero"/></clipPath><clipPath id="b59814e5ce"><path d="M 104.195312 225.953125 L -6.296875 56.535156 L 87.570312 -4.683594 L 198.0625 164.734375 Z M 104.195312 225.953125 " clip-rule="nonzero"/></clipPath><clipPath id="da671a938e"><path d="M 197.941406 164.8125 L 87.449219 -4.605469 L -6.417969 56.613281 L 104.074219 226.03125 Z M 197.941406 164.8125 " clip-rule="nonzero"/></clipPath><clipPath id="d88cde2303"><path d="M 65 35 L 81 35 L 81 88 L 65 88 Z M 65 35 " clip-rule="nonzero"/></clipPath><clipPath id="07cd47b0a4"><path d="M 104.195312 225.953125 L -6.296875 56.535156 L 87.570312 -4.683594 L 198.0625 164.734375 Z M 104.195312 225.953125 " clip-rule="nonzero"/></clipPath><clipPath id="f2ca991c84"><path d="M 197.941406 164.8125 L 87.449219 -4.605469 L -6.417969 56.613281 L 104.074219 226.03125 Z M 197.941406 164.8125 " clip-rule="nonzero"/></clipPath><clipPath id="e53c28baa6"><path d="M 80 52 L 94 52 L 94 96 L 80 96 Z M 80 52 " clip-rule="nonzero"/></clipPath><clipPath id="291292cd3c"><path d="M 104.195312 225.953125 L -6.296875 56.535156 L 87.570312 -4.683594 L 198.0625 164.734375 Z M 104.195312 225.953125 " clip-rule="nonzero"/></clipPath><clipPath id="0a44b6dc4b"><path d="M 197.941406 164.8125 L 87.449219 -4.605469 L -6.417969 56.613281 L 104.074219 226.03125 Z M 197.941406 164.8125 " clip-rule="nonzero"/></clipPath><clipPath id="15b0cc6e5c"><rect x="0" width="193" y="0" height="223"/></clipPath><clipPath id="ae2652e7f9"><path d="M 135 15.550781 L 186 15.550781 L 186 60 L 135 60 Z M 135 15.550781 " clip-rule="nonzero"/></clipPath><clipPath id="31d5a47974"><path d="M 101.375 62 L 219.820312 62 L 219.820312 75.683594 L 101.375 75.683594 Z M 101.375 62 " clip-rule="nonzero"/></clipPath><clipPath id="3c12341394"><rect x="0" width="313" y="0" height="252"/></clipPath></defs><g transform="matrix(1, 0, 0, 1, 31, 60)"><g clip-path="url(#3c12341394)"><g clip-path="url(#cba31f2de9)"><g clip-path="url(#8c1e69d57b)"><g clip-path="url(#5ac882a3f6)"><path fill="#412151" d="M 237.617188 155.835938 C 276.671875 136.042969 289.285156 109.25 292.195312 91.96875 C 291.914062 107.3125 283.554688 139.402344 238.589844 163.265625 C 201.589844 182.898438 192.320312 210.859375 189.449219 224.902344 C 187.519531 214.585938 194.617188 177.628906 237.617188 155.835938 Z M 237.617188 155.835938 " fill-opacity="1" fill-rule="nonzero"/></g></g></g><g clip-path="url(#f052190442)"><g clip-path="url(#edf09638cc)"><g clip-path="url(#802b0d6300)"><path fill="#412151" d="M 185.824219 114.289062 C 204.738281 99.964844 215.671875 83.769531 215.671875 83.769531 C 221.832031 90.230469 223.0625 105.542969 207.011719 118.074219 C 190.957031 130.609375 202.609375 133.285156 208.226562 131.070312 C 212.859375 129.242188 240.679688 123.203125 260.414062 83.894531 C 270.820312 63.167969 264.179688 44.164062 273.046875 43.890625 C 277.945312 43.738281 287.457031 107.355469 226.375 154.09375 C 182.105469 187.960938 185.144531 223.929688 185.144531 223.929688 C 149.5625 172.632812 163.878906 130.910156 185.824219 114.289062 Z M 185.824219 114.289062 " fill-opacity="1" fill-rule="nonzero"/></g></g></g><g clip-path="url(#f81ac43044)"><g clip-path="url(#9b627da039)"><g clip-path="url(#5b37bcad07)"><path fill="#412151" d="M 251.753906 88.042969 C 251.003906 73.738281 249.980469 45.832031 253.171875 42.757812 C 256.890625 39.179688 261.035156 37.871094 262.5625 61.847656 C 261.605469 66.996094 260.03125 72.648438 257.125 78.429688 C 255.390625 81.890625 253.59375 85.082031 251.753906 88.042969 Z M 251.753906 88.042969 " fill-opacity="1" fill-rule="nonzero"/></g></g></g><g clip-path="url(#fc042b1203)"><g clip-path="url(#ad514373b9)"><g clip-path="url(#7b2297f51d)"><path fill="#412151" d="M 237.777344 105.855469 C 237.140625 95.375 235.183594 58.542969 238.878906 54.988281 C 243.371094 50.664062 248.476562 49.683594 248.855469 92.472656 C 245.21875 97.742188 241.476562 102.15625 237.777344 105.855469 Z M 237.777344 105.855469 " fill-opacity="1" fill-rule="nonzero"/></g></g></g><g clip-path="url(#ed59dae9d6)"><g clip-path="url(#5d74f10d56)"><g clip-path="url(#1d0546bdad)"><path fill="#412151" d="M 226.558594 73.730469 C 230.453125 69.976562 234.902344 69.195312 234.988281 108.527344 C 231.757812 111.480469 228.589844 113.914062 225.589844 115.925781 C 225.011719 106.269531 223.519531 76.65625 226.558594 73.730469 Z M 226.558594 73.730469 " fill-opacity="1" fill-rule="nonzero"/></g></g></g><g clip-path="url(#cd1b592f75)"><g clip-path="url(#68d6610fae)"><g transform="matrix(1, 0, 0, 1, 95, 0)"><g clip-path="url(#8cdaaaff62)"><g clip-path="url(#e8fb6cd41c)"><g clip-path="url(#c4ed4fa8c0)"><path fill="#df7694" d="M 0.742188 0.0390625 L 130.789062 0.0390625 L 130.789062 118.09375 L 0.742188 118.09375 Z M 0.742188 0.0390625 " fill-opacity="1" fill-rule="nonzero"/></g></g></g></g></g></g><g clip-path="url(#2a0c433a82)"><g clip-path="url(#a1446cd97a)"><g transform="matrix(1, 0, 0, 1, -0.000000000000003553, 29)"><g clip-path="url(#15b0cc6e5c)"><g clip-path="url(#e8cb0f4c73)"><g clip-path="url(#148f4a7241)"><g clip-path="url(#d6479e677d)"><path fill="#412151" d="M 87.257812 136.746094 C 45.859375 122.480469 29.707031 97.664062 24.457031 80.945312 C 26.835938 96.105469 39.503906 126.75 87.3125 144.242188 C 126.648438 158.632812 139.648438 185.0625 144.414062 198.582031 C 144.917969 188.09375 132.832031 152.457031 87.257812 136.746094 Z M 87.257812 136.746094 " fill-opacity="1" fill-rule="nonzero"/></g></g></g><g clip-path="url(#0bf2473c3a)"><g clip-path="url(#8c043c0542)"><g clip-path="url(#f83cb00a86)"><path fill="#412151" d="M 132.882812 88.507812 C 112.1875 76.902344 99.140625 62.359375 99.140625 62.359375 C 93.921875 69.597656 94.796875 84.9375 112.414062 95.15625 C 130.027344 105.375 118.855469 109.621094 112.984375 108.195312 C 108.144531 107.019531 79.761719 104.839844 54.835938 68.601562 C 41.695312 49.492188 45.671875 29.757812 36.851562 30.699219 C 31.980469 31.214844 31.257812 95.535156 98.15625 133.488281 C 146.636719 160.980469 148.546875 197.027344 148.546875 197.027344 C 176.78125 141.34375 156.894531 101.972656 132.882812 88.507812 Z M 132.882812 88.507812 " fill-opacity="1" fill-rule="nonzero"/></g></g></g><g clip-path="url(#5593d73787)"><g clip-path="url(#b59814e5ce)"><g clip-path="url(#da671a938e)"><path fill="#412151" d="M 63.980469 71.523438 C 62.769531 57.253906 59.96875 29.46875 56.386719 26.859375 C 52.214844 23.820312 47.929688 23.089844 49.695312 47.054688 C 51.347656 52.023438 53.679688 57.40625 57.351562 62.738281 C 59.539062 65.929688 61.757812 68.84375 63.980469 71.523438 Z M 63.980469 71.523438 " fill-opacity="1" fill-rule="nonzero"/></g></g></g><g clip-path="url(#d88cde2303)"><g clip-path="url(#07cd47b0a4)"><g clip-path="url(#f2ca991c84)"><path fill="#412151" d="M 80.265625 87.261719 C 79.464844 76.789062 76.363281 40.035156 72.21875 37.019531 C 67.175781 33.351562 61.984375 33.078125 67.460938 75.515625 C 71.78125 80.238281 76.09375 84.097656 80.265625 87.261719 Z M 80.265625 87.261719 " fill-opacity="1" fill-rule="nonzero"/></g></g></g><g clip-path="url(#e53c28baa6)"><g clip-path="url(#291292cd3c)"><g clip-path="url(#0a44b6dc4b)"><path fill="#412151" d="M 86.984375 53.902344 C 82.613281 50.71875 78.101562 50.546875 83.390625 89.523438 C 86.996094 92.007812 90.46875 93.984375 93.714844 95.570312 C 92.964844 85.925781 90.394531 56.382812 86.984375 53.902344 Z M 86.984375 53.902344 " fill-opacity="1" fill-rule="nonzero"/></g></g></g></g></g></g></g><path fill="#ffffff" d="M 120.558594 63.761719 L 120.558594 58.214844 C 120.558594 56.292969 121.351562 54.550781 122.621094 53.285156 C 123.886719 52.015625 125.628906 51.222656 127.550781 51.222656 C 129.472656 51.222656 131.214844 52.015625 132.484375 53.285156 C 133.75 54.550781 134.542969 56.292969 134.542969 58.214844 L 134.542969 60.59375 C 133.214844 60.808594 131.871094 61.066406 130.5625 61.324219 L 130.5625 58.195312 C 130.5625 57.382812 130.226562 56.632812 129.691406 56.078125 C 129.15625 55.542969 128.402344 55.207031 127.570312 55.207031 C 126.757812 55.207031 126.007812 55.542969 125.453125 56.078125 C 124.917969 56.613281 124.582031 57.363281 124.582031 58.195312 L 124.582031 62.671875 C 123.234375 63.007812 121.90625 63.367188 120.597656 63.742188 Z M 110.179688 67.367188 L 110.179688 50.3125 L 104.613281 50.3125 C 104.082031 50.3125 103.527344 50.09375 103.148438 49.660156 C 102.417969 48.847656 102.476562 47.578125 103.289062 46.847656 L 126.222656 25.929688 C 126.976562 25.238281 128.144531 25.238281 128.898438 25.929688 L 136.703125 33.042969 L 134.503906 35.0625 C 134.246094 35.300781 134.027344 35.558594 133.828125 35.8125 L 127.570312 30.089844 L 109.785156 46.3125 L 112.199219 46.3125 C 113.308594 46.3125 114.203125 47.203125 114.203125 48.3125 L 114.203125 65.820312 C 112.855469 66.316406 111.527344 66.8125 110.199219 67.367188 Z M 110.179688 67.367188 " fill-opacity="1" fill-rule="nonzero"/><path fill="#ffffff" d="M 186.832031 60.59375 L 186.832031 58.214844 C 186.832031 56.292969 187.625 54.550781 188.894531 53.285156 C 190.160156 52.015625 191.902344 51.222656 193.824219 51.222656 C 195.746094 51.222656 197.488281 52.015625 198.757812 53.285156 C 200.023438 54.550781 200.816406 56.292969 200.816406 58.214844 L 200.816406 63.761719 C 199.488281 63.386719 198.164062 63.027344 196.816406 62.691406 L 196.816406 58.214844 C 196.816406 57.402344 196.480469 56.652344 195.945312 56.097656 C 195.410156 55.5625 194.65625 55.226562 193.824219 55.226562 C 193.011719 55.226562 192.261719 55.5625 191.707031 56.097656 C 191.171875 56.632812 190.835938 57.382812 190.835938 58.214844 L 190.835938 61.34375 C 189.507812 61.085938 188.179688 60.832031 186.832031 60.613281 Z M 207.195312 65.820312 L 207.195312 48.3125 C 207.195312 47.203125 208.085938 46.3125 209.195312 46.3125 L 211.613281 46.3125 L 193.824219 30.089844 L 187.566406 35.792969 C 187.328125 35.476562 187.070312 35.179688 186.753906 34.921875 L 184.675781 33.042969 L 192.476562 25.929688 C 193.230469 25.238281 194.398438 25.238281 195.152344 25.929688 L 218.007812 46.765625 C 218.464844 47.125 218.742188 47.699219 218.742188 48.3125 C 218.742188 49.421875 217.851562 50.3125 216.742188 50.3125 L 211.175781 50.3125 L 211.175781 67.367188 C 209.867188 66.832031 208.542969 66.316406 207.175781 65.820312 Z M 207.195312 65.820312 " fill-opacity="1" fill-rule="nonzero"/><g clip-path="url(#ae2652e7f9)"><path fill="#ffffff" d="M 153.695312 58.570312 L 153.695312 48.53125 C 153.695312 46.609375 154.488281 44.867188 155.757812 43.597656 C 157.023438 42.332031 158.765625 41.539062 160.6875 41.539062 C 162.609375 41.539062 164.351562 42.332031 165.621094 43.597656 C 166.886719 44.867188 167.679688 46.609375 167.679688 48.53125 L 167.679688 58.570312 C 166.332031 58.511719 165.007812 58.472656 163.679688 58.453125 L 163.679688 48.53125 C 163.679688 47.71875 163.34375 46.964844 162.808594 46.410156 C 162.273438 45.875 161.519531 45.539062 160.6875 45.539062 C 159.875 45.539062 159.125 45.875 158.570312 46.410156 C 158.035156 46.945312 157.699219 47.699219 157.699219 48.53125 L 157.699219 58.453125 C 156.390625 58.472656 155.042969 58.511719 153.695312 58.570312 Z M 174.058594 58.988281 L 174.058594 38.648438 C 174.058594 37.539062 174.949219 36.644531 176.058594 36.644531 L 178.476562 36.644531 L 160.6875 20.425781 L 142.902344 36.644531 L 145.316406 36.644531 C 146.425781 36.644531 147.320312 37.539062 147.320312 38.648438 L 147.320312 58.988281 C 145.992188 59.105469 144.664062 59.226562 143.335938 59.363281 L 143.335938 40.628906 L 137.773438 40.628906 C 137.238281 40.628906 136.683594 40.410156 136.304688 39.972656 C 135.574219 39.160156 135.632812 37.894531 136.445312 37.160156 L 159.382812 16.246094 C 160.132812 15.550781 161.300781 15.550781 162.054688 16.246094 L 184.910156 37.082031 C 185.367188 37.4375 185.644531 38.011719 185.644531 38.625 C 185.644531 39.734375 184.753906 40.628906 183.644531 40.628906 L 178.078125 40.628906 L 178.078125 59.363281 C 176.75 59.226562 175.40625 59.085938 174.078125 58.988281 Z M 174.058594 58.988281 " fill-opacity="1" fill-rule="nonzero"/></g><g clip-path="url(#31d5a47974)"><path fill="#ffffff" d="M 160.667969 62.195312 C 184.695312 62.195312 206.066406 67.566406 219.773438 75.882812 C 203.730469 70.773438 183.128906 67.703125 160.667969 67.703125 C 138.1875 67.703125 117.589844 70.773438 101.566406 75.882812 C 115.269531 67.542969 136.664062 62.195312 160.667969 62.195312 Z M 160.667969 62.195312 " fill-opacity="1" fill-rule="evenodd"/></g></g></g></svg>