<svg xmlns="http://www.w3.org/2000/svg" xmlns:xlink="http://www.w3.org/1999/xlink" width="500" zoomAndPan="magnify" viewBox="0 0 375 374.999991" height="500" preserveAspectRatio="xMidYMid meet" version="1.0"><defs><clipPath id="4a5d223868"><path d="M 228 152 L 370 152 L 370 335 L 228 335 Z M 228 152 " clip-rule="nonzero"/></clipPath><clipPath id="feb886c192"><path d="M 150.375 298.367188 L 268.125 48.746094 L 406.503906 114.019531 L 288.753906 363.640625 Z M 150.375 298.367188 " clip-rule="nonzero"/></clipPath><clipPath id="3f885df8b4"><path d="M 150.375 298.367188 L 268.125 48.746094 L 406.503906 114.019531 L 288.753906 363.640625 Z M 150.375 298.367188 " clip-rule="nonzero"/></clipPath><clipPath id="3be635f8a6"><path d="M 193 87 L 348 87 L 348 333 L 193 333 Z M 193 87 " clip-rule="nonzero"/></clipPath><clipPath id="d493cb85ce"><path d="M 150.375 298.367188 L 268.125 48.746094 L 406.503906 114.019531 L 288.753906 363.640625 Z M 150.375 298.367188 " clip-rule="nonzero"/></clipPath><clipPath id="f4fa65e198"><path d="M 150.375 298.367188 L 268.125 48.746094 L 406.503906 114.019531 L 288.753906 363.640625 Z M 150.375 298.367188 " clip-rule="nonzero"/></clipPath><clipPath id="7019174d4e"><path d="M 312 82 L 329 82 L 329 148 L 312 148 Z M 312 82 " clip-rule="nonzero"/></clipPath><clipPath id="4e411fd759"><path d="M 150.375 298.367188 L 268.125 48.746094 L 406.503906 114.019531 L 288.753906 363.640625 Z M 150.375 298.367188 " clip-rule="nonzero"/></clipPath><clipPath id="e56d669c3d"><path d="M 150.375 298.367188 L 268.125 48.746094 L 406.503906 114.019531 L 288.753906 363.640625 Z M 150.375 298.367188 " clip-rule="nonzero"/></clipPath><clipPath id="4d4600d37c"><path d="M 293 99 L 311 99 L 311 172 L 293 172 Z M 293 99 " clip-rule="nonzero"/></clipPath><clipPath id="e9cf15ee5b"><path d="M 150.375 298.367188 L 268.125 48.746094 L 406.503906 114.019531 L 288.753906 363.640625 Z M 150.375 298.367188 " clip-rule="nonzero"/></clipPath><clipPath id="7a8be1fda2"><path d="M 150.375 298.367188 L 268.125 48.746094 L 406.503906 114.019531 L 288.753906 363.640625 Z M 150.375 298.367188 " clip-rule="nonzero"/></clipPath><clipPath id="8705fefd46"><path d="M 277 125 L 292 125 L 292 186 L 277 186 Z M 277 125 " clip-rule="nonzero"/></clipPath><clipPath id="2673484da8"><path d="M 150.375 298.367188 L 268.125 48.746094 L 406.503906 114.019531 L 288.753906 363.640625 Z M 150.375 298.367188 " clip-rule="nonzero"/></clipPath><clipPath id="f610e907e5"><path d="M 150.375 298.367188 L 268.125 48.746094 L 406.503906 114.019531 L 288.753906 363.640625 Z M 150.375 298.367188 " clip-rule="nonzero"/></clipPath><clipPath id="8bcc2d2b2f"><path d="M 101 27.320312 L 278.550781 27.320312 L 278.550781 188.332031 L 101 188.332031 Z M 101 27.320312 " clip-rule="nonzero"/></clipPath><clipPath id="3c4154805a"><path d="M 275.941406 61.34375 C 270.339844 42.320312 252.253906 27.320312 230.867188 27.320312 C 212.914062 27.320312 197.3125 37.453125 189.429688 52.332031 C 181.542969 37.453125 165.945312 27.320312 147.992188 27.320312 C 125.621094 27.320312 106.054688 42.320312 102.214844 64.089844 C 92.472656 119.289062 154.214844 162.496094 189.566406 188.332031 C 222.253906 164.445312 291.960938 115.738281 275.941406 61.34375 Z M 275.941406 61.34375 " clip-rule="nonzero"/></clipPath><clipPath id="3f472daae4"><path d="M 0.0390625 0.320312 L 177.550781 0.320312 L 177.550781 161.332031 L 0.0390625 161.332031 Z M 0.0390625 0.320312 " clip-rule="nonzero"/></clipPath><clipPath id="d2f746cebf"><path d="M 174.941406 34.34375 C 169.339844 15.320312 151.253906 0.320312 129.867188 0.320312 C 111.914062 0.320312 96.3125 10.453125 88.429688 25.332031 C 80.542969 10.453125 64.945312 0.320312 46.992188 0.320312 C 24.621094 0.320312 5.054688 15.320312 1.214844 37.089844 C -8.527344 92.289062 53.214844 135.496094 88.566406 161.332031 C 121.253906 137.445312 190.960938 88.738281 174.941406 34.34375 Z M 174.941406 34.34375 " clip-rule="nonzero"/></clipPath><clipPath id="b8cb0a5f90"><rect x="0" width="178" y="0" height="162"/></clipPath><clipPath id="88cc041439"><path d="M 0 67 L 233 67 L 233 370 L 0 370 Z M 0 67 " clip-rule="nonzero"/></clipPath><clipPath id="a4db4be6cd"><path d="M 112.71875 374.992188 L -38.050781 143.816406 L 90.101562 60.234375 L 240.875 291.414062 Z M 112.71875 374.992188 " clip-rule="nonzero"/></clipPath><clipPath id="a2a1b24a38"><path d="M 3 110 L 168 110 L 168 271 L 3 271 Z M 3 110 " clip-rule="nonzero"/></clipPath><clipPath id="adfd7230c2"><path d="M 112.71875 307.992188 L -38.050781 76.816406 L 90.101562 -6.765625 L 240.875 224.414062 Z M 112.71875 307.992188 " clip-rule="nonzero"/></clipPath><clipPath id="34b9dbed94"><path d="M 240.578125 224.605469 L 89.804688 -6.574219 L -38.347656 77.007812 L 112.425781 308.183594 Z M 240.578125 224.605469 " clip-rule="nonzero"/></clipPath><clipPath id="6a0bed9cba"><path d="M 18 41 L 193 41 L 193 269 L 18 269 Z M 18 41 " clip-rule="nonzero"/></clipPath><clipPath id="0e063b0d42"><path d="M 112.71875 307.992188 L -38.050781 76.816406 L 90.101562 -6.765625 L 240.875 224.414062 Z M 112.71875 307.992188 " clip-rule="nonzero"/></clipPath><clipPath id="90b8a39af3"><path d="M 240.578125 224.605469 L 89.804688 -6.574219 L -38.347656 77.007812 L 112.425781 308.183594 Z M 240.578125 224.605469 " clip-rule="nonzero"/></clipPath><clipPath id="1f9c80b257"><path d="M 37 34 L 58 34 L 58 98 L 37 98 Z M 37 34 " clip-rule="nonzero"/></clipPath><clipPath id="2f75150bc9"><path d="M 112.71875 307.992188 L -38.050781 76.816406 L 90.101562 -6.765625 L 240.875 224.414062 Z M 112.71875 307.992188 " clip-rule="nonzero"/></clipPath><clipPath id="a5587e1ddf"><path d="M 240.578125 224.605469 L 89.804688 -6.574219 L -38.347656 77.007812 L 112.425781 308.183594 Z M 240.578125 224.605469 " clip-rule="nonzero"/></clipPath><clipPath id="bb7195b736"><path d="M 59 48 L 81 48 L 81 119 L 59 119 Z M 59 48 " clip-rule="nonzero"/></clipPath><clipPath id="cd280de5c7"><path d="M 112.71875 307.992188 L -38.050781 76.816406 L 90.101562 -6.765625 L 240.875 224.414062 Z M 112.71875 307.992188 " clip-rule="nonzero"/></clipPath><clipPath id="05e2477227"><path d="M 240.578125 224.605469 L 89.804688 -6.574219 L -38.347656 77.007812 L 112.425781 308.183594 Z M 240.578125 224.605469 " clip-rule="nonzero"/></clipPath><clipPath id="056f1ac578"><path d="M 81 71 L 99 71 L 99 131 L 81 131 Z M 81 71 " clip-rule="nonzero"/></clipPath><clipPath id="549cb593de"><path d="M 112.71875 307.992188 L -38.050781 76.816406 L 90.101562 -6.765625 L 240.875 224.414062 Z M 112.71875 307.992188 " clip-rule="nonzero"/></clipPath><clipPath id="d68668e6f4"><path d="M 240.578125 224.605469 L 89.804688 -6.574219 L -38.347656 77.007812 L 112.425781 308.183594 Z M 240.578125 224.605469 " clip-rule="nonzero"/></clipPath><clipPath id="0c2c0b1b1c"><rect x="0" width="233" y="0" height="303"/></clipPath><clipPath id="d6e9cea613"><path d="M 155 48.480469 L 224 48.480469 L 224 109 L 155 109 Z M 155 48.480469 " clip-rule="nonzero"/></clipPath><clipPath id="33d512ee5a"><path d="M 109 112 L 270.871094 112 L 270.871094 130.980469 L 109 130.980469 Z M 109 112 " clip-rule="nonzero"/></clipPath></defs><g clip-path="url(#4a5d223868)"><g clip-path="url(#feb886c192)"><g clip-path="url(#3f885df8b4)"><path fill="#412151" d="M 294.683594 239.808594 C 347.957031 212.8125 365.15625 176.273438 369.125 152.703125 C 368.742188 173.628906 357.34375 217.398438 296.011719 249.945312 C 245.546875 276.722656 232.910156 314.855469 228.992188 334.007812 C 226.359375 319.9375 236.042969 269.53125 294.683594 239.808594 Z M 294.683594 239.808594 " fill-opacity="1" fill-rule="nonzero"/></g></g></g><g clip-path="url(#3be635f8a6)"><g clip-path="url(#d493cb85ce)"><g clip-path="url(#f4fa65e198)"><path fill="#412151" d="M 224.046875 183.140625 C 249.84375 163.605469 264.757812 141.519531 264.757812 141.519531 C 273.160156 150.328125 274.835938 171.214844 252.941406 188.308594 C 231.046875 205.402344 246.9375 209.050781 254.601562 206.03125 C 260.921875 203.539062 298.863281 195.304688 325.78125 141.691406 C 339.972656 113.421875 330.917969 87.5 343.011719 87.128906 C 349.6875 86.921875 362.664062 173.683594 279.355469 237.433594 C 218.976562 283.621094 223.121094 332.679688 223.121094 332.679688 C 174.589844 262.714844 194.117188 205.8125 224.046875 183.140625 Z M 224.046875 183.140625 " fill-opacity="1" fill-rule="nonzero"/></g></g></g><g clip-path="url(#7019174d4e)"><g clip-path="url(#4e411fd759)"><g clip-path="url(#e56d669c3d)"><path fill="#412151" d="M 313.96875 147.347656 C 312.949219 127.839844 311.546875 89.777344 315.902344 85.585938 C 320.972656 80.699219 326.628906 78.914062 328.707031 111.621094 C 327.402344 118.644531 325.253906 126.347656 321.292969 134.238281 C 318.929688 138.957031 316.476562 143.3125 313.96875 147.347656 Z M 313.96875 147.347656 " fill-opacity="1" fill-rule="nonzero"/></g></g></g><g clip-path="url(#4d4600d37c)"><g clip-path="url(#e9cf15ee5b)"><g clip-path="url(#7a8be1fda2)"><path fill="#412151" d="M 294.902344 171.644531 C 294.035156 157.347656 291.367188 107.113281 296.410156 102.261719 C 302.539062 96.367188 309.5 95.027344 310.011719 153.390625 C 305.054688 160.574219 299.953125 166.59375 294.902344 171.644531 Z M 294.902344 171.644531 " fill-opacity="1" fill-rule="nonzero"/></g></g></g><g clip-path="url(#8705fefd46)"><g clip-path="url(#2673484da8)"><g clip-path="url(#f610e907e5)"><path fill="#412151" d="M 279.605469 127.828125 C 284.917969 122.707031 290.984375 121.640625 291.101562 175.285156 C 286.695312 179.316406 282.375 182.632812 278.28125 185.378906 C 277.496094 172.207031 275.460938 131.816406 279.605469 127.828125 Z M 279.605469 127.828125 " fill-opacity="1" fill-rule="nonzero"/></g></g></g><g clip-path="url(#8bcc2d2b2f)"><g clip-path="url(#3c4154805a)"><g transform="matrix(1, 0, 0, 1, 101, 27)"><g clip-path="url(#b8cb0a5f90)"><g clip-path="url(#3f472daae4)"><g clip-path="url(#d2f746cebf)"><path fill="#df7694" d="M 0.1875 0.320312 L 177.550781 0.320312 L 177.550781 161.332031 L 0.1875 161.332031 Z M 0.1875 0.320312 " fill-opacity="1" fill-rule="nonzero"/></g></g></g></g></g></g><g clip-path="url(#88cc041439)"><g clip-path="url(#a4db4be6cd)"><g transform="matrix(1, 0, 0, 1, 0, 67)"><g clip-path="url(#0c2c0b1b1c)"><g clip-path="url(#a2a1b24a38)"><g clip-path="url(#adfd7230c2)"><g clip-path="url(#34b9dbed94)"><path fill="#412151" d="M 89.621094 186.328125 C 33.15625 166.867188 11.125 133.023438 3.96875 110.21875 C 7.210938 130.894531 24.484375 172.691406 89.691406 196.546875 C 143.339844 216.175781 161.074219 252.222656 167.574219 270.660156 C 168.257812 256.359375 151.777344 207.753906 89.621094 186.328125 Z M 89.621094 186.328125 " fill-opacity="1" fill-rule="nonzero"/></g></g></g><g clip-path="url(#6a0bed9cba)"><g clip-path="url(#0e063b0d42)"><g clip-path="url(#90b8a39af3)"><path fill="#412151" d="M 151.847656 120.535156 C 123.621094 104.707031 105.828125 84.871094 105.828125 84.871094 C 98.710938 94.742188 99.902344 115.664062 123.929688 129.601562 C 147.953125 143.539062 132.710938 149.332031 124.707031 147.386719 C 118.109375 145.78125 79.398438 142.808594 45.402344 93.382812 C 27.476562 67.320312 32.902344 40.402344 20.871094 41.6875 C 14.230469 42.394531 13.238281 130.117188 104.480469 181.878906 C 170.605469 219.378906 173.210938 268.542969 173.210938 268.542969 C 211.71875 192.597656 184.59375 138.898438 151.847656 120.535156 Z M 151.847656 120.535156 " fill-opacity="1" fill-rule="nonzero"/></g></g></g><g clip-path="url(#1f9c80b257)"><g clip-path="url(#2f75150bc9)"><g clip-path="url(#a5587e1ddf)"><path fill="#412151" d="M 57.871094 97.371094 C 56.21875 77.90625 52.402344 40.007812 47.515625 36.453125 C 41.824219 32.308594 35.976562 31.3125 38.390625 63.996094 C 40.640625 70.773438 43.824219 78.113281 48.828125 85.386719 C 51.8125 89.738281 54.835938 93.714844 57.871094 97.371094 Z M 57.871094 97.371094 " fill-opacity="1" fill-rule="nonzero"/></g></g></g><g clip-path="url(#bb7195b736)"><g clip-path="url(#cd280de5c7)"><g clip-path="url(#05e2477227)"><path fill="#412151" d="M 80.082031 118.832031 C 78.988281 104.550781 74.761719 54.421875 69.105469 50.308594 C 62.226562 45.304688 55.148438 44.933594 62.621094 102.816406 C 68.511719 109.253906 74.390625 114.519531 80.082031 118.832031 Z M 80.082031 118.832031 " fill-opacity="1" fill-rule="nonzero"/></g></g></g><g clip-path="url(#056f1ac578)"><g clip-path="url(#549cb593de)"><g clip-path="url(#d68668e6f4)"><path fill="#412151" d="M 89.246094 73.335938 C 83.285156 68.992188 77.128906 68.761719 84.347656 121.917969 C 89.261719 125.308594 93.996094 128.003906 98.425781 130.164062 C 97.402344 117.011719 93.898438 76.722656 89.246094 73.335938 Z M 89.246094 73.335938 " fill-opacity="1" fill-rule="nonzero"/></g></g></g></g></g></g></g><path fill="#ffffff" d="M 135.042969 114.226562 L 135.042969 106.664062 C 135.042969 104.042969 136.121094 101.664062 137.851562 99.9375 C 139.582031 98.207031 141.957031 97.128906 144.578125 97.128906 C 147.199219 97.128906 149.574219 98.207031 151.304688 99.9375 C 153.03125 101.664062 154.113281 104.042969 154.113281 106.664062 L 154.113281 109.90625 C 152.304688 110.203125 150.464844 110.550781 148.683594 110.902344 L 148.683594 106.636719 C 148.683594 105.527344 148.222656 104.503906 147.496094 103.746094 C 146.765625 103.015625 145.738281 102.558594 144.605469 102.558594 C 143.496094 102.558594 142.46875 103.015625 141.714844 103.746094 C 140.984375 104.476562 140.527344 105.5 140.527344 106.636719 L 140.527344 112.742188 C 138.6875 113.199219 136.878906 113.6875 135.097656 114.199219 Z M 120.886719 119.140625 L 120.886719 95.886719 L 113.296875 95.886719 C 112.570312 95.886719 111.8125 95.589844 111.300781 94.992188 C 110.300781 93.886719 110.378906 92.15625 111.488281 91.160156 L 142.769531 62.632812 C 143.792969 61.6875 145.386719 61.6875 146.414062 62.632812 L 157.058594 72.332031 L 154.058594 75.085938 C 153.707031 75.410156 153.410156 75.761719 153.140625 76.113281 L 144.605469 68.304688 L 120.347656 90.429688 L 123.644531 90.429688 C 125.15625 90.429688 126.371094 91.644531 126.371094 93.15625 L 126.371094 117.035156 C 124.535156 117.710938 122.726562 118.386719 120.914062 119.140625 Z M 120.886719 119.140625 " fill-opacity="1" fill-rule="nonzero"/><path fill="#ffffff" d="M 225.421875 109.90625 L 225.421875 106.664062 C 225.421875 104.042969 226.503906 101.664062 228.234375 99.9375 C 229.960938 98.207031 232.339844 97.128906 234.957031 97.128906 C 237.578125 97.128906 239.957031 98.207031 241.683594 99.9375 C 243.414062 101.664062 244.492188 104.042969 244.492188 106.664062 L 244.492188 114.226562 C 242.683594 113.714844 240.875 113.226562 239.035156 112.769531 L 239.035156 106.664062 C 239.035156 105.554688 238.578125 104.527344 237.847656 103.773438 C 237.121094 103.042969 236.09375 102.585938 234.957031 102.585938 C 233.851562 102.585938 232.824219 103.042969 232.066406 103.773438 C 231.339844 104.503906 230.878906 105.527344 230.878906 106.664062 L 230.878906 110.929688 C 229.070312 110.578125 227.261719 110.230469 225.421875 109.929688 Z M 253.191406 117.035156 L 253.191406 93.15625 C 253.191406 91.644531 254.40625 90.429688 255.917969 90.429688 L 259.214844 90.429688 L 234.957031 68.304688 L 226.421875 76.085938 C 226.097656 75.652344 225.746094 75.25 225.316406 74.898438 L 222.480469 72.332031 L 233.121094 62.632812 C 234.148438 61.6875 235.742188 61.6875 236.769531 62.632812 L 267.941406 91.050781 C 268.5625 91.535156 268.9375 92.320312 268.9375 93.15625 C 268.9375 94.667969 267.722656 95.886719 266.210938 95.886719 L 258.621094 95.886719 L 258.621094 119.140625 C 256.835938 118.414062 255.027344 117.710938 253.164062 117.035156 Z M 253.191406 117.035156 " fill-opacity="1" fill-rule="nonzero"/><g clip-path="url(#d6e9cea613)"><path fill="#ffffff" d="M 180.234375 107.148438 L 180.234375 93.453125 C 180.234375 90.835938 181.3125 88.457031 183.042969 86.726562 C 184.769531 85 187.148438 83.917969 189.769531 83.917969 C 192.386719 83.917969 194.765625 85 196.492188 86.726562 C 198.222656 88.457031 199.304688 90.835938 199.304688 93.453125 L 199.304688 107.148438 C 197.464844 107.066406 195.65625 107.015625 193.847656 106.988281 L 193.847656 93.453125 C 193.847656 92.347656 193.386719 91.320312 192.65625 90.5625 C 191.929688 89.835938 190.902344 89.375 189.769531 89.375 C 188.660156 89.375 187.632812 89.835938 186.878906 90.5625 C 186.148438 91.292969 185.6875 92.320312 185.6875 93.453125 L 185.6875 106.988281 C 183.90625 107.015625 182.070312 107.066406 180.234375 107.148438 Z M 208 107.714844 L 208 79.976562 C 208 78.464844 209.214844 77.246094 210.730469 77.246094 L 214.023438 77.246094 L 189.769531 55.125 L 165.511719 77.246094 L 168.808594 77.246094 C 170.320312 77.246094 171.535156 78.464844 171.535156 79.976562 L 171.535156 107.714844 C 169.726562 107.878906 167.914062 108.039062 166.105469 108.230469 L 166.105469 82.675781 L 158.515625 82.675781 C 157.785156 82.675781 157.03125 82.378906 156.515625 81.785156 C 155.515625 80.679688 155.597656 78.949219 156.707031 77.949219 L 187.984375 49.425781 C 189.011719 48.480469 190.605469 48.480469 191.632812 49.425781 L 222.804688 77.839844 C 223.425781 78.328125 223.800781 79.109375 223.800781 79.949219 C 223.800781 81.460938 222.585938 82.675781 221.074219 82.675781 L 213.484375 82.675781 L 213.484375 108.230469 C 211.675781 108.039062 209.835938 107.851562 208.027344 107.714844 Z M 208 107.714844 " fill-opacity="1" fill-rule="nonzero"/></g><g clip-path="url(#33d512ee5a)"><path fill="#ffffff" d="M 189.742188 112.09375 C 222.507812 112.09375 251.652344 119.414062 270.34375 130.757812 C 248.464844 123.789062 220.371094 119.601562 189.742188 119.601562 C 159.082031 119.601562 130.992188 123.789062 109.136719 130.757812 C 127.832031 119.386719 157.003906 112.09375 189.742188 112.09375 Z M 189.742188 112.09375 " fill-opacity="1" fill-rule="evenodd"/></g></svg>