<svg xmlns="http://www.w3.org/2000/svg" xmlns:xlink="http://www.w3.org/1999/xlink" width="500" zoomAndPan="magnify" viewBox="0 0 375 374.999991" height="500" preserveAspectRatio="xMidYMid meet" version="1.0"><defs><clipPath id="3aee776451"><path d="M 88.859375 121 L 245.609375 121 L 245.609375 258 L 88.859375 258 Z M 88.859375 121 " clip-rule="nonzero"/></clipPath><clipPath id="186221237d"><path d="M 88.859375 121 L 245.609375 121 L 245.609375 152 L 88.859375 152 Z M 88.859375 121 " clip-rule="nonzero"/></clipPath><clipPath id="82c3c96a50"><path d="M 158 103.71875 L 176 103.71875 L 176 139 L 158 139 Z M 158 103.71875 " clip-rule="nonzero"/></clipPath><clipPath id="812d64bab6"><path d="M 115 103.71875 L 133 103.71875 L 133 139 L 115 139 Z M 115 103.71875 " clip-rule="nonzero"/></clipPath><clipPath id="80283c48dd"><path d="M 202 103.71875 L 220 103.71875 L 220 139 L 202 139 Z M 202 103.71875 " clip-rule="nonzero"/></clipPath></defs><g clip-path="url(#3aee776451)"><path fill="#d3dce5" d="M 99.445312 121.269531 L 235.023438 121.269531 C 235.71875 121.269531 236.40625 121.339844 237.089844 121.476562 C 237.769531 121.609375 238.433594 121.8125 239.074219 122.078125 C 239.71875 122.347656 240.328125 122.671875 240.90625 123.0625 C 241.484375 123.449219 242.019531 123.886719 242.511719 124.382812 C 243 124.875 243.441406 125.410156 243.828125 125.992188 C 244.210938 126.570312 244.539062 127.183594 244.804688 127.828125 C 245.070312 128.472656 245.273438 129.136719 245.40625 129.820312 C 245.542969 130.503906 245.609375 131.195312 245.609375 131.890625 L 245.609375 247.269531 C 245.609375 247.96875 245.542969 248.65625 245.40625 249.339844 C 245.273438 250.023438 245.070312 250.6875 244.804688 251.332031 C 244.539062 251.976562 244.210938 252.589844 243.828125 253.167969 C 243.441406 253.75 243 254.285156 242.511719 254.777344 C 242.019531 255.273438 241.484375 255.710938 240.90625 256.097656 C 240.328125 256.488281 239.71875 256.8125 239.074219 257.082031 C 238.433594 257.347656 237.769531 257.550781 237.089844 257.683594 C 236.40625 257.820312 235.71875 257.890625 235.023438 257.890625 L 99.445312 257.890625 C 98.75 257.890625 98.0625 257.820312 97.382812 257.683594 C 96.699219 257.550781 96.039062 257.347656 95.394531 257.082031 C 94.753906 256.8125 94.144531 256.488281 93.566406 256.097656 C 92.988281 255.710938 92.453125 255.273438 91.960938 254.777344 C 91.46875 254.285156 91.03125 253.75 90.644531 253.167969 C 90.257812 252.589844 89.933594 251.976562 89.667969 251.332031 C 89.398438 250.6875 89.199219 250.023438 89.0625 249.339844 C 88.929688 248.65625 88.859375 247.96875 88.859375 247.269531 L 88.859375 131.890625 C 88.859375 131.195312 88.929688 130.503906 89.0625 129.820312 C 89.199219 129.136719 89.398438 128.472656 89.667969 127.828125 C 89.933594 127.183594 90.257812 126.570312 90.644531 125.992188 C 91.03125 125.410156 91.46875 124.875 91.960938 124.382812 C 92.453125 123.886719 92.988281 123.449219 93.566406 123.0625 C 94.144531 122.671875 94.753906 122.347656 95.394531 122.078125 C 96.039062 121.8125 96.699219 121.609375 97.382812 121.476562 C 98.0625 121.339844 98.75 121.269531 99.445312 121.269531 Z M 99.445312 121.269531 " fill-opacity="1" fill-rule="nonzero"/></g><g clip-path="url(#186221237d)"><path fill="#d85264" d="M 235.03125 121.269531 L 99.441406 121.269531 C 93.617188 121.269531 88.859375 126.042969 88.859375 131.886719 L 88.859375 151.792969 L 245.609375 151.792969 L 245.609375 131.886719 C 245.609375 126.042969 240.851562 121.269531 235.03125 121.269531 Z M 235.03125 121.269531 " fill-opacity="1" fill-rule="nonzero"/></g><g clip-path="url(#82c3c96a50)"><path fill="#d3dce5" d="M 165.058594 103.765625 L 169.414062 103.765625 C 169.839844 103.765625 170.265625 103.808594 170.683594 103.890625 C 171.105469 103.976562 171.511719 104.097656 171.90625 104.265625 C 172.300781 104.429688 172.679688 104.628906 173.035156 104.867188 C 173.390625 105.105469 173.71875 105.378906 174.019531 105.679688 C 174.324219 105.984375 174.59375 106.316406 174.832031 106.671875 C 175.070312 107.027344 175.269531 107.40625 175.433594 107.800781 C 175.597656 108.199219 175.722656 108.605469 175.804688 109.027344 C 175.886719 109.449219 175.929688 109.875 175.929688 110.304688 L 175.929688 132.089844 C 175.929688 132.519531 175.886719 132.945312 175.804688 133.367188 C 175.722656 133.785156 175.597656 134.195312 175.433594 134.589844 C 175.269531 134.988281 175.070312 135.363281 174.832031 135.722656 C 174.59375 136.078125 174.324219 136.410156 174.019531 136.710938 C 173.71875 137.015625 173.390625 137.285156 173.035156 137.523438 C 172.679688 137.765625 172.300781 137.964844 171.90625 138.128906 C 171.511719 138.292969 171.105469 138.417969 170.683594 138.5 C 170.265625 138.585938 169.839844 138.628906 169.414062 138.628906 L 165.058594 138.628906 C 164.628906 138.628906 164.207031 138.585938 163.785156 138.5 C 163.367188 138.417969 162.960938 138.292969 162.5625 138.128906 C 162.167969 137.964844 161.792969 137.765625 161.4375 137.523438 C 161.082031 137.285156 160.753906 137.015625 160.449219 136.710938 C 160.148438 136.410156 159.878906 136.078125 159.640625 135.722656 C 159.402344 135.363281 159.203125 134.988281 159.039062 134.589844 C 158.875 134.195312 158.75 133.785156 158.667969 133.367188 C 158.582031 132.945312 158.542969 132.519531 158.542969 132.089844 L 158.542969 110.304688 C 158.542969 109.875 158.582031 109.449219 158.667969 109.027344 C 158.75 108.605469 158.875 108.199219 159.039062 107.800781 C 159.203125 107.40625 159.402344 107.027344 159.640625 106.671875 C 159.878906 106.316406 160.148438 105.984375 160.449219 105.679688 C 160.753906 105.378906 161.082031 105.105469 161.4375 104.867188 C 161.792969 104.628906 162.167969 104.429688 162.5625 104.265625 C 162.960938 104.097656 163.367188 103.976562 163.785156 103.890625 C 164.207031 103.808594 164.628906 103.765625 165.058594 103.765625 Z M 165.058594 103.765625 " fill-opacity="1" fill-rule="nonzero"/></g><g clip-path="url(#812d64bab6)"><path fill="#d3dce5" d="M 121.574219 103.765625 L 125.929688 103.765625 C 126.355469 103.765625 126.78125 103.808594 127.199219 103.890625 C 127.621094 103.976562 128.027344 104.097656 128.421875 104.265625 C 128.816406 104.429688 129.195312 104.628906 129.550781 104.867188 C 129.90625 105.105469 130.234375 105.378906 130.535156 105.679688 C 130.839844 105.984375 131.109375 106.316406 131.347656 106.671875 C 131.585938 107.027344 131.785156 107.40625 131.949219 107.800781 C 132.113281 108.199219 132.238281 108.605469 132.320312 109.027344 C 132.402344 109.449219 132.445312 109.875 132.445312 110.304688 L 132.445312 132.089844 C 132.445312 132.519531 132.402344 132.945312 132.320312 133.367188 C 132.238281 133.785156 132.113281 134.195312 131.949219 134.589844 C 131.785156 134.988281 131.585938 135.363281 131.347656 135.722656 C 131.109375 136.078125 130.839844 136.410156 130.535156 136.710938 C 130.234375 137.015625 129.90625 137.285156 129.550781 137.523438 C 129.195312 137.765625 128.816406 137.964844 128.421875 138.128906 C 128.027344 138.292969 127.621094 138.417969 127.199219 138.5 C 126.78125 138.585938 126.355469 138.628906 125.929688 138.628906 L 121.574219 138.628906 C 121.144531 138.628906 120.722656 138.585938 120.300781 138.5 C 119.882812 138.417969 119.476562 138.292969 119.078125 138.128906 C 118.683594 137.964844 118.308594 137.765625 117.953125 137.523438 C 117.597656 137.285156 117.269531 137.015625 116.964844 136.710938 C 116.664062 136.410156 116.394531 136.078125 116.15625 135.722656 C 115.917969 135.363281 115.71875 134.988281 115.554688 134.589844 C 115.390625 134.195312 115.265625 133.785156 115.183594 133.367188 C 115.097656 132.945312 115.058594 132.519531 115.058594 132.089844 L 115.058594 110.304688 C 115.058594 109.875 115.097656 109.449219 115.183594 109.027344 C 115.265625 108.605469 115.390625 108.199219 115.554688 107.800781 C 115.71875 107.40625 115.917969 107.027344 116.15625 106.671875 C 116.394531 106.316406 116.664062 105.984375 116.964844 105.679688 C 117.269531 105.378906 117.597656 105.105469 117.953125 104.867188 C 118.308594 104.628906 118.683594 104.429688 119.078125 104.265625 C 119.476562 104.097656 119.882812 103.976562 120.300781 103.890625 C 120.722656 103.808594 121.144531 103.765625 121.574219 103.765625 Z M 121.574219 103.765625 " fill-opacity="1" fill-rule="nonzero"/></g><g clip-path="url(#80283c48dd)"><path fill="#d3dce5" d="M 208.539062 103.765625 L 212.894531 103.765625 C 213.324219 103.765625 213.746094 103.808594 214.164062 103.890625 C 214.585938 103.976562 214.992188 104.097656 215.386719 104.265625 C 215.785156 104.429688 216.160156 104.628906 216.515625 104.867188 C 216.871094 105.105469 217.199219 105.378906 217.503906 105.679688 C 217.804688 105.984375 218.074219 106.316406 218.3125 106.671875 C 218.550781 107.027344 218.75 107.40625 218.914062 107.800781 C 219.078125 108.199219 219.203125 108.605469 219.285156 109.027344 C 219.371094 109.449219 219.410156 109.875 219.410156 110.304688 L 219.410156 132.089844 C 219.410156 132.519531 219.371094 132.945312 219.285156 133.367188 C 219.203125 133.785156 219.078125 134.195312 218.914062 134.589844 C 218.75 134.988281 218.550781 135.363281 218.3125 135.722656 C 218.074219 136.078125 217.804688 136.410156 217.503906 136.710938 C 217.199219 137.015625 216.871094 137.285156 216.515625 137.523438 C 216.160156 137.765625 215.785156 137.964844 215.386719 138.128906 C 214.992188 138.292969 214.585938 138.417969 214.164062 138.5 C 213.746094 138.585938 213.324219 138.628906 212.894531 138.628906 L 208.539062 138.628906 C 208.109375 138.628906 207.6875 138.585938 207.269531 138.5 C 206.847656 138.417969 206.441406 138.292969 206.046875 138.128906 C 205.648438 137.964844 205.273438 137.765625 204.917969 137.523438 C 204.5625 137.285156 204.234375 137.015625 203.929688 136.710938 C 203.628906 136.410156 203.359375 136.078125 203.121094 135.722656 C 202.882812 135.363281 202.683594 134.988281 202.519531 134.589844 C 202.355469 134.195312 202.230469 133.785156 202.148438 133.367188 C 202.066406 132.945312 202.023438 132.519531 202.023438 132.089844 L 202.023438 110.304688 C 202.023438 109.875 202.066406 109.449219 202.148438 109.027344 C 202.230469 108.605469 202.355469 108.199219 202.519531 107.800781 C 202.683594 107.40625 202.882812 107.027344 203.121094 106.671875 C 203.359375 106.316406 203.628906 105.984375 203.929688 105.679688 C 204.234375 105.378906 204.5625 105.105469 204.917969 104.867188 C 205.273438 104.628906 205.648438 104.429688 206.046875 104.265625 C 206.441406 104.097656 206.847656 103.976562 207.269531 103.890625 C 207.6875 103.808594 208.109375 103.765625 208.539062 103.765625 Z M 208.539062 103.765625 " fill-opacity="1" fill-rule="nonzero"/></g><path fill="#749dd1" d="M 115.011719 172.03125 L 161.210938 172.03125 C 161.714844 172.03125 162.214844 172.078125 162.710938 172.179688 C 163.207031 172.277344 163.691406 172.425781 164.15625 172.617188 C 164.625 172.8125 165.070312 173.050781 165.492188 173.332031 C 165.910156 173.617188 166.300781 173.9375 166.65625 174.292969 C 167.015625 174.652344 167.335938 175.042969 167.617188 175.464844 C 167.898438 175.886719 168.136719 176.332031 168.328125 176.800781 C 168.523438 177.269531 168.667969 177.753906 168.765625 178.253906 C 168.867188 178.75 168.914062 179.253906 168.914062 179.761719 L 168.914062 226.105469 C 168.914062 226.613281 168.867188 227.117188 168.765625 227.613281 C 168.667969 228.113281 168.523438 228.59375 168.328125 229.0625 C 168.136719 229.535156 167.898438 229.980469 167.617188 230.402344 C 167.335938 230.824219 167.015625 231.214844 166.65625 231.570312 C 166.300781 231.929688 165.910156 232.25 165.492188 232.535156 C 165.070312 232.816406 164.625 233.054688 164.15625 233.246094 C 163.691406 233.441406 163.207031 233.589844 162.710938 233.6875 C 162.214844 233.785156 161.714844 233.835938 161.210938 233.835938 L 115.011719 233.835938 C 114.503906 233.835938 114.003906 233.785156 113.507812 233.6875 C 113.011719 233.589844 112.527344 233.441406 112.0625 233.246094 C 111.59375 233.054688 111.148438 232.816406 110.730469 232.535156 C 110.308594 232.25 109.917969 231.929688 109.5625 231.570312 C 109.203125 231.214844 108.882812 230.824219 108.601562 230.402344 C 108.320312 229.980469 108.085938 229.535156 107.890625 229.0625 C 107.695312 228.59375 107.550781 228.113281 107.453125 227.613281 C 107.351562 227.117188 107.304688 226.613281 107.304688 226.105469 L 107.304688 179.761719 C 107.304688 179.253906 107.351562 178.75 107.453125 178.253906 C 107.550781 177.753906 107.695312 177.269531 107.890625 176.800781 C 108.085938 176.332031 108.320312 175.886719 108.601562 175.464844 C 108.882812 175.042969 109.203125 174.652344 109.5625 174.292969 C 109.917969 173.9375 110.308594 173.617188 110.730469 173.332031 C 111.148438 173.050781 111.59375 172.8125 112.0625 172.617188 C 112.527344 172.425781 113.011719 172.277344 113.507812 172.179688 C 114.003906 172.078125 114.503906 172.03125 115.011719 172.03125 Z M 115.011719 172.03125 " fill-opacity="1" fill-rule="nonzero"/><path fill="#9eabc4" d="M 188.015625 218.039062 L 196.441406 218.039062 C 196.710938 218.039062 196.980469 218.066406 197.246094 218.117188 C 197.515625 218.171875 197.773438 218.25 198.023438 218.355469 C 198.273438 218.457031 198.511719 218.585938 198.738281 218.738281 C 198.964844 218.890625 199.171875 219.0625 199.363281 219.253906 C 199.558594 219.445312 199.726562 219.65625 199.878906 219.882812 C 200.03125 220.109375 200.15625 220.347656 200.261719 220.597656 C 200.363281 220.851562 200.441406 221.109375 200.496094 221.378906 C 200.550781 221.644531 200.574219 221.914062 200.574219 222.1875 L 200.574219 225.542969 C 200.574219 225.8125 200.550781 226.082031 200.496094 226.351562 C 200.441406 226.617188 200.363281 226.878906 200.261719 227.128906 C 200.15625 227.378906 200.03125 227.621094 199.878906 227.847656 C 199.726562 228.070312 199.558594 228.28125 199.363281 228.472656 C 199.171875 228.667969 198.964844 228.839844 198.738281 228.988281 C 198.511719 229.140625 198.273438 229.269531 198.023438 229.375 C 197.773438 229.476562 197.515625 229.554688 197.246094 229.609375 C 196.980469 229.664062 196.710938 229.6875 196.441406 229.6875 L 188.015625 229.6875 C 187.746094 229.6875 187.476562 229.664062 187.210938 229.609375 C 186.941406 229.554688 186.683594 229.476562 186.433594 229.375 C 186.183594 229.269531 185.945312 229.140625 185.71875 228.988281 C 185.492188 228.839844 185.285156 228.667969 185.09375 228.472656 C 184.902344 228.28125 184.730469 228.070312 184.578125 227.847656 C 184.429688 227.621094 184.300781 227.378906 184.195312 227.128906 C 184.09375 226.878906 184.015625 226.617188 183.960938 226.351562 C 183.910156 226.082031 183.882812 225.8125 183.882812 225.542969 L 183.882812 222.1875 C 183.882812 221.914062 183.910156 221.644531 183.960938 221.378906 C 184.015625 221.109375 184.09375 220.851562 184.195312 220.597656 C 184.300781 220.347656 184.429688 220.109375 184.578125 219.882812 C 184.730469 219.65625 184.902344 219.445312 185.09375 219.253906 C 185.285156 219.0625 185.492188 218.890625 185.71875 218.738281 C 185.945312 218.585938 186.183594 218.457031 186.433594 218.355469 C 186.683594 218.25 186.941406 218.171875 187.210938 218.117188 C 187.476562 218.066406 187.746094 218.039062 188.015625 218.039062 Z M 188.015625 218.039062 " fill-opacity="1" fill-rule="nonzero"/><path fill="#9eabc4" d="M 214.609375 218.039062 L 223.03125 218.039062 C 223.304688 218.039062 223.574219 218.066406 223.839844 218.117188 C 224.105469 218.171875 224.363281 218.25 224.613281 218.355469 C 224.867188 218.457031 225.105469 218.585938 225.328125 218.738281 C 225.554688 218.890625 225.765625 219.0625 225.957031 219.253906 C 226.148438 219.445312 226.320312 219.65625 226.46875 219.882812 C 226.621094 220.109375 226.75 220.347656 226.851562 220.597656 C 226.957031 220.851562 227.035156 221.109375 227.085938 221.378906 C 227.140625 221.644531 227.167969 221.914062 227.167969 222.1875 L 227.167969 225.542969 C 227.167969 225.8125 227.140625 226.082031 227.085938 226.351562 C 227.035156 226.617188 226.957031 226.878906 226.851562 227.128906 C 226.75 227.378906 226.621094 227.621094 226.46875 227.847656 C 226.320312 228.070312 226.148438 228.28125 225.957031 228.472656 C 225.765625 228.667969 225.554688 228.839844 225.328125 228.988281 C 225.105469 229.140625 224.867188 229.269531 224.613281 229.375 C 224.363281 229.476562 224.105469 229.554688 223.839844 229.609375 C 223.574219 229.664062 223.304688 229.6875 223.03125 229.6875 L 214.609375 229.6875 C 214.335938 229.6875 214.066406 229.664062 213.800781 229.609375 C 213.535156 229.554688 213.277344 229.476562 213.027344 229.375 C 212.773438 229.269531 212.535156 229.140625 212.3125 228.988281 C 212.085938 228.839844 211.875 228.667969 211.683594 228.472656 C 211.492188 228.28125 211.320312 228.070312 211.171875 227.847656 C 211.019531 227.621094 210.890625 227.378906 210.789062 227.128906 C 210.683594 226.878906 210.605469 226.617188 210.554688 226.351562 C 210.5 226.082031 210.472656 225.8125 210.472656 225.542969 L 210.472656 222.1875 C 210.472656 221.914062 210.5 221.644531 210.554688 221.378906 C 210.605469 221.109375 210.683594 220.851562 210.789062 220.597656 C 210.890625 220.347656 211.019531 220.109375 211.171875 219.882812 C 211.320312 219.65625 211.492188 219.445312 211.683594 219.253906 C 211.875 219.0625 212.085938 218.890625 212.3125 218.738281 C 212.535156 218.585938 212.773438 218.457031 213.027344 218.355469 C 213.277344 218.25 213.535156 218.171875 213.800781 218.117188 C 214.066406 218.066406 214.335938 218.039062 214.609375 218.039062 Z M 214.609375 218.039062 " fill-opacity="1" fill-rule="nonzero"/><path fill="#9eabc4" d="M 188.015625 196.597656 L 196.441406 196.597656 C 196.710938 196.597656 196.980469 196.625 197.246094 196.675781 C 197.515625 196.730469 197.773438 196.808594 198.023438 196.914062 C 198.273438 197.015625 198.511719 197.144531 198.738281 197.296875 C 198.964844 197.449219 199.171875 197.621094 199.363281 197.8125 C 199.558594 198.003906 199.726562 198.214844 199.878906 198.441406 C 200.03125 198.667969 200.15625 198.90625 200.261719 199.15625 C 200.363281 199.410156 200.441406 199.667969 200.496094 199.933594 C 200.550781 200.203125 200.574219 200.472656 200.574219 200.746094 L 200.574219 204.101562 C 200.574219 204.371094 200.550781 204.640625 200.496094 204.910156 C 200.441406 205.175781 200.363281 205.4375 200.261719 205.6875 C 200.15625 205.9375 200.03125 206.179688 199.878906 206.402344 C 199.726562 206.628906 199.558594 206.839844 199.363281 207.03125 C 199.171875 207.226562 198.964844 207.398438 198.738281 207.546875 C 198.511719 207.699219 198.273438 207.828125 198.023438 207.933594 C 197.773438 208.035156 197.515625 208.113281 197.246094 208.167969 C 196.980469 208.222656 196.710938 208.246094 196.441406 208.246094 L 188.015625 208.246094 C 187.746094 208.246094 187.476562 208.222656 187.210938 208.167969 C 186.941406 208.113281 186.683594 208.035156 186.433594 207.933594 C 186.183594 207.828125 185.945312 207.699219 185.71875 207.546875 C 185.492188 207.398438 185.285156 207.226562 185.09375 207.03125 C 184.902344 206.839844 184.730469 206.628906 184.578125 206.402344 C 184.429688 206.179688 184.300781 205.9375 184.195312 205.6875 C 184.09375 205.4375 184.015625 205.175781 183.960938 204.910156 C 183.910156 204.640625 183.882812 204.371094 183.882812 204.101562 L 183.882812 200.746094 C 183.882812 200.472656 183.910156 200.203125 183.960938 199.933594 C 184.015625 199.667969 184.09375 199.410156 184.195312 199.15625 C 184.300781 198.90625 184.429688 198.667969 184.578125 198.441406 C 184.730469 198.214844 184.902344 198.003906 185.09375 197.8125 C 185.285156 197.621094 185.492188 197.449219 185.71875 197.296875 C 185.945312 197.144531 186.183594 197.015625 186.433594 196.914062 C 186.683594 196.808594 186.941406 196.730469 187.210938 196.675781 C 187.476562 196.625 187.746094 196.597656 188.015625 196.597656 Z M 188.015625 196.597656 " fill-opacity="1" fill-rule="nonzero"/><path fill="#9eabc4" d="M 214.609375 196.597656 L 223.03125 196.597656 C 223.304688 196.597656 223.574219 196.625 223.839844 196.675781 C 224.105469 196.730469 224.363281 196.808594 224.613281 196.914062 C 224.867188 197.015625 225.105469 197.144531 225.328125 197.296875 C 225.554688 197.449219 225.765625 197.621094 225.957031 197.8125 C 226.148438 198.003906 226.320312 198.214844 226.46875 198.441406 C 226.621094 198.667969 226.75 198.90625 226.851562 199.15625 C 226.957031 199.410156 227.035156 199.667969 227.085938 199.933594 C 227.140625 200.203125 227.167969 200.472656 227.167969 200.746094 L 227.167969 204.101562 C 227.167969 204.371094 227.140625 204.640625 227.085938 204.910156 C 227.035156 205.175781 226.957031 205.4375 226.851562 205.6875 C 226.75 205.9375 226.621094 206.179688 226.46875 206.402344 C 226.320312 206.628906 226.148438 206.839844 225.957031 207.03125 C 225.765625 207.226562 225.554688 207.398438 225.328125 207.546875 C 225.105469 207.699219 224.867188 207.828125 224.613281 207.933594 C 224.363281 208.035156 224.105469 208.113281 223.839844 208.167969 C 223.574219 208.222656 223.304688 208.246094 223.03125 208.246094 L 214.609375 208.246094 C 214.335938 208.246094 214.066406 208.222656 213.800781 208.167969 C 213.535156 208.113281 213.277344 208.035156 213.027344 207.933594 C 212.773438 207.828125 212.535156 207.699219 212.3125 207.546875 C 212.085938 207.398438 211.875 207.226562 211.683594 207.03125 C 211.492188 206.839844 211.320312 206.628906 211.171875 206.402344 C 211.019531 206.179688 210.890625 205.9375 210.789062 205.6875 C 210.683594 205.4375 210.605469 205.175781 210.554688 204.910156 C 210.5 204.640625 210.472656 204.371094 210.472656 204.101562 L 210.472656 200.746094 C 210.472656 200.472656 210.5 200.203125 210.554688 199.933594 C 210.605469 199.667969 210.683594 199.410156 210.789062 199.15625 C 210.890625 198.90625 211.019531 198.667969 211.171875 198.441406 C 211.320312 198.214844 211.492188 198.003906 211.683594 197.8125 C 211.875 197.621094 212.085938 197.449219 212.3125 197.296875 C 212.535156 197.144531 212.773438 197.015625 213.027344 196.914062 C 213.277344 196.808594 213.535156 196.730469 213.800781 196.675781 C 214.066406 196.625 214.335938 196.597656 214.609375 196.597656 Z M 214.609375 196.597656 " fill-opacity="1" fill-rule="nonzero"/><path fill="#9eabc4" d="M 188.015625 175.152344 L 196.441406 175.152344 C 196.710938 175.152344 196.980469 175.179688 197.246094 175.234375 C 197.515625 175.285156 197.773438 175.363281 198.023438 175.46875 C 198.273438 175.574219 198.511719 175.699219 198.738281 175.851562 C 198.964844 176.003906 199.171875 176.175781 199.363281 176.367188 C 199.558594 176.558594 199.726562 176.769531 199.878906 176.996094 C 200.03125 177.222656 200.15625 177.460938 200.261719 177.714844 C 200.363281 177.964844 200.441406 178.222656 200.496094 178.492188 C 200.550781 178.757812 200.574219 179.027344 200.574219 179.300781 L 200.574219 182.65625 C 200.574219 182.929688 200.550781 183.199219 200.496094 183.464844 C 200.441406 183.730469 200.363281 183.992188 200.261719 184.242188 C 200.15625 184.496094 200.03125 184.734375 199.878906 184.960938 C 199.726562 185.1875 199.558594 185.394531 199.363281 185.589844 C 199.171875 185.78125 198.964844 185.953125 198.738281 186.105469 C 198.511719 186.253906 198.273438 186.382812 198.023438 186.488281 C 197.773438 186.589844 197.515625 186.671875 197.246094 186.722656 C 196.980469 186.777344 196.710938 186.804688 196.441406 186.804688 L 188.015625 186.804688 C 187.746094 186.804688 187.476562 186.777344 187.210938 186.722656 C 186.941406 186.671875 186.683594 186.589844 186.433594 186.488281 C 186.183594 186.382812 185.945312 186.253906 185.71875 186.105469 C 185.492188 185.953125 185.285156 185.78125 185.09375 185.589844 C 184.902344 185.394531 184.730469 185.1875 184.578125 184.960938 C 184.429688 184.734375 184.300781 184.496094 184.195312 184.242188 C 184.09375 183.992188 184.015625 183.730469 183.960938 183.464844 C 183.910156 183.199219 183.882812 182.929688 183.882812 182.65625 L 183.882812 179.300781 C 183.882812 179.027344 183.910156 178.757812 183.960938 178.492188 C 184.015625 178.222656 184.09375 177.964844 184.195312 177.714844 C 184.300781 177.460938 184.429688 177.222656 184.578125 176.996094 C 184.730469 176.769531 184.902344 176.558594 185.09375 176.367188 C 185.285156 176.175781 185.492188 176.003906 185.71875 175.851562 C 185.945312 175.699219 186.183594 175.574219 186.433594 175.46875 C 186.683594 175.363281 186.941406 175.285156 187.210938 175.234375 C 187.476562 175.179688 187.746094 175.152344 188.015625 175.152344 Z M 188.015625 175.152344 " fill-opacity="1" fill-rule="nonzero"/><path fill="#9eabc4" d="M 214.609375 175.152344 L 223.03125 175.152344 C 223.304688 175.152344 223.574219 175.179688 223.839844 175.234375 C 224.105469 175.285156 224.363281 175.363281 224.613281 175.46875 C 224.867188 175.574219 225.105469 175.699219 225.328125 175.851562 C 225.554688 176.003906 225.765625 176.175781 225.957031 176.367188 C 226.148438 176.558594 226.320312 176.769531 226.46875 176.996094 C 226.621094 177.222656 226.75 177.460938 226.851562 177.714844 C 226.957031 177.964844 227.035156 178.222656 227.085938 178.492188 C 227.140625 178.757812 227.167969 179.027344 227.167969 179.300781 L 227.167969 182.65625 C 227.167969 182.929688 227.140625 183.199219 227.085938 183.464844 C 227.035156 183.730469 226.957031 183.992188 226.851562 184.242188 C 226.75 184.496094 226.621094 184.734375 226.46875 184.960938 C 226.320312 185.1875 226.148438 185.394531 225.957031 185.589844 C 225.765625 185.78125 225.554688 185.953125 225.328125 186.105469 C 225.105469 186.253906 224.867188 186.382812 224.613281 186.488281 C 224.363281 186.589844 224.105469 186.671875 223.839844 186.722656 C 223.574219 186.777344 223.304688 186.804688 223.03125 186.804688 L 214.609375 186.804688 C 214.335938 186.804688 214.066406 186.777344 213.800781 186.722656 C 213.535156 186.671875 213.277344 186.589844 213.027344 186.488281 C 212.773438 186.382812 212.535156 186.253906 212.3125 186.105469 C 212.085938 185.953125 211.875 185.78125 211.683594 185.589844 C 211.492188 185.394531 211.320312 185.1875 211.171875 184.960938 C 211.019531 184.734375 210.890625 184.496094 210.789062 184.242188 C 210.683594 183.992188 210.605469 183.730469 210.554688 183.464844 C 210.5 183.199219 210.472656 182.929688 210.472656 182.65625 L 210.472656 179.300781 C 210.472656 179.027344 210.5 178.757812 210.554688 178.492188 C 210.605469 178.222656 210.683594 177.964844 210.789062 177.714844 C 210.890625 177.460938 211.019531 177.222656 211.171875 176.996094 C 211.320312 176.769531 211.492188 176.558594 211.683594 176.367188 C 211.875 176.175781 212.085938 176.003906 212.3125 175.851562 C 212.535156 175.699219 212.773438 175.574219 213.027344 175.46875 C 213.277344 175.363281 213.535156 175.285156 213.800781 175.234375 C 214.066406 175.179688 214.335938 175.152344 214.609375 175.152344 Z M 214.609375 175.152344 " fill-opacity="1" fill-rule="nonzero"/><path fill="#d3dce5" d="M 154.597656 197.078125 L 143.945312 197.078125 L 143.945312 186.390625 C 143.945312 185.074219 142.878906 184.003906 141.566406 184.003906 L 134.648438 184.003906 C 133.335938 184.003906 132.269531 185.070312 132.269531 186.390625 L 132.269531 197.078125 L 121.617188 197.078125 C 120.304688 197.078125 119.238281 198.144531 119.238281 199.464844 L 119.238281 206.402344 C 119.238281 207.71875 120.300781 208.789062 121.617188 208.789062 L 132.269531 208.789062 L 132.269531 219.476562 C 132.269531 220.792969 133.332031 221.863281 134.648438 221.863281 L 141.566406 221.863281 C 142.878906 221.863281 143.945312 220.796875 143.945312 219.476562 L 143.945312 208.789062 L 154.597656 208.789062 C 155.910156 208.789062 156.976562 207.722656 156.976562 206.402344 L 156.976562 199.464844 C 156.976562 198.148438 155.914062 197.078125 154.597656 197.078125 Z M 154.597656 197.078125 " fill-opacity="1" fill-rule="nonzero"/><path fill="#f5f5f5" d="M 285.15625 247.230469 C 285.15625 247.988281 285.117188 248.746094 285.042969 249.5 C 284.96875 250.253906 284.859375 251.003906 284.710938 251.746094 C 284.5625 252.492188 284.378906 253.226562 284.15625 253.949219 C 283.9375 254.675781 283.683594 255.386719 283.390625 256.089844 C 283.101562 256.789062 282.777344 257.472656 282.421875 258.140625 C 282.0625 258.808594 281.671875 259.460938 281.25 260.089844 C 280.832031 260.71875 280.378906 261.328125 279.898438 261.914062 C 279.417969 262.5 278.90625 263.0625 278.371094 263.597656 C 277.835938 264.132812 277.273438 264.640625 276.6875 265.121094 C 276.101562 265.601562 275.492188 266.054688 274.859375 266.476562 C 274.230469 266.898438 273.582031 267.285156 272.910156 267.644531 C 272.242188 268 271.558594 268.324219 270.855469 268.613281 C 270.15625 268.90625 269.441406 269.160156 268.714844 269.378906 C 267.992188 269.597656 267.253906 269.785156 266.511719 269.929688 C 265.765625 270.078125 265.019531 270.191406 264.261719 270.265625 C 263.507812 270.339844 262.75 270.375 261.992188 270.375 L 199.5 270.375 C 198.742188 270.375 197.984375 270.339844 197.230469 270.265625 C 196.472656 270.191406 195.722656 270.078125 194.980469 269.929688 C 194.238281 269.785156 193.5 269.597656 192.777344 269.378906 C 192.050781 269.160156 191.335938 268.90625 190.636719 268.613281 C 189.933594 268.324219 189.25 268 188.582031 267.644531 C 187.910156 267.285156 187.261719 266.898438 186.632812 266.476562 C 186 266.054688 185.390625 265.601562 184.804688 265.121094 C 184.21875 264.640625 183.65625 264.132812 183.121094 263.597656 C 182.585938 263.0625 182.074219 262.5 181.59375 261.914062 C 181.113281 261.328125 180.660156 260.71875 180.242188 260.089844 C 179.820312 259.460938 179.429688 258.808594 179.070312 258.140625 C 178.714844 257.472656 178.390625 256.789062 178.101562 256.089844 C 177.808594 255.386719 177.554688 254.675781 177.335938 253.949219 C 177.113281 253.226562 176.929688 252.492188 176.78125 251.746094 C 176.632812 251.003906 176.523438 250.253906 176.449219 249.5 C 176.375 248.746094 176.335938 247.988281 176.335938 247.230469 C 176.335938 246.472656 176.375 245.71875 176.449219 244.964844 C 176.523438 244.207031 176.632812 243.460938 176.78125 242.714844 C 176.929688 241.972656 177.113281 241.238281 177.335938 240.511719 C 177.554688 239.789062 177.808594 239.074219 178.101562 238.375 C 178.390625 237.675781 178.714844 236.988281 179.070312 236.320312 C 179.429688 235.652344 179.820312 235.003906 180.242188 234.375 C 180.660156 233.742188 181.113281 233.136719 181.59375 232.550781 C 182.074219 231.964844 182.585938 231.402344 183.121094 230.867188 C 183.65625 230.332031 184.21875 229.820312 184.804688 229.339844 C 185.390625 228.859375 186 228.410156 186.628906 227.988281 C 187.261719 227.566406 187.910156 227.175781 188.582031 226.820312 C 189.25 226.460938 189.933594 226.140625 190.636719 225.847656 C 191.335938 225.558594 192.050781 225.304688 192.773438 225.082031 C 193.5 224.863281 194.234375 224.679688 194.980469 224.53125 C 195.722656 224.382812 196.472656 224.273438 197.230469 224.199219 C 197.984375 224.125 198.742188 224.085938 199.5 224.085938 L 261.992188 224.085938 C 262.75 224.085938 263.507812 224.125 264.261719 224.199219 C 265.019531 224.273438 265.765625 224.382812 266.511719 224.53125 C 267.253906 224.679688 267.992188 224.863281 268.714844 225.082031 C 269.441406 225.304688 270.15625 225.558594 270.855469 225.847656 C 271.558594 226.140625 272.242188 226.460938 272.910156 226.820312 C 273.582031 227.175781 274.230469 227.566406 274.859375 227.988281 C 275.492188 228.410156 276.101562 228.859375 276.6875 229.339844 C 277.273438 229.820312 277.835938 230.332031 278.371094 230.867188 C 278.90625 231.402344 279.417969 231.964844 279.898438 232.550781 C 280.378906 233.136719 280.832031 233.742188 281.25 234.375 C 281.671875 235.003906 282.0625 235.652344 282.421875 236.320312 C 282.777344 236.988281 283.101562 237.675781 283.390625 238.375 C 283.683594 239.074219 283.9375 239.789062 284.15625 240.511719 C 284.378906 241.238281 284.5625 241.972656 284.710938 242.714844 C 284.859375 243.460938 284.96875 244.207031 285.042969 244.964844 C 285.117188 245.71875 285.15625 246.472656 285.15625 247.230469 Z M 285.15625 247.230469 " fill-opacity="1" fill-rule="nonzero"/><path fill="#191919" d="M 285.15625 247.230469 C 285.15625 247.988281 285.117188 248.746094 285.042969 249.5 C 284.96875 250.253906 284.859375 251.003906 284.710938 251.746094 C 284.5625 252.492188 284.378906 253.226562 284.15625 253.949219 C 283.9375 254.675781 283.683594 255.386719 283.390625 256.089844 C 283.101562 256.789062 282.777344 257.472656 282.421875 258.140625 C 282.0625 258.808594 281.671875 259.460938 281.25 260.089844 C 280.832031 260.71875 280.378906 261.328125 279.898438 261.914062 C 279.417969 262.5 278.90625 263.0625 278.371094 263.597656 C 277.835938 264.132812 277.273438 264.640625 276.6875 265.121094 C 276.101562 265.601562 275.492188 266.054688 274.859375 266.476562 C 274.230469 266.898438 273.582031 267.285156 272.910156 267.644531 C 272.242188 268 271.558594 268.324219 270.855469 268.613281 C 270.15625 268.90625 269.441406 269.160156 268.714844 269.378906 C 267.992188 269.597656 267.253906 269.785156 266.511719 269.929688 C 265.765625 270.078125 265.019531 270.191406 264.261719 270.265625 C 263.507812 270.339844 262.75 270.375 261.992188 270.375 L 199.5 270.375 C 198.742188 270.375 197.984375 270.339844 197.230469 270.265625 C 196.472656 270.191406 195.722656 270.078125 194.980469 269.929688 C 194.238281 269.785156 193.5 269.597656 192.777344 269.378906 C 192.050781 269.160156 191.335938 268.90625 190.636719 268.613281 C 189.933594 268.324219 189.25 268 188.582031 267.644531 C 187.910156 267.285156 187.261719 266.898438 186.632812 266.476562 C 186 266.054688 185.390625 265.601562 184.804688 265.121094 C 184.21875 264.640625 183.65625 264.132812 183.121094 263.597656 C 182.585938 263.0625 182.074219 262.5 181.59375 261.914062 C 181.113281 261.328125 180.660156 260.71875 180.242188 260.089844 C 179.820312 259.460938 179.429688 258.808594 179.070312 258.140625 C 178.714844 257.472656 178.390625 256.789062 178.101562 256.089844 C 177.808594 255.386719 177.554688 254.675781 177.335938 253.949219 C 177.113281 253.226562 176.929688 252.492188 176.78125 251.746094 C 176.632812 251.003906 176.523438 250.253906 176.449219 249.5 C 176.375 248.746094 176.335938 247.988281 176.335938 247.230469 C 176.335938 246.472656 176.375 245.71875 176.449219 244.964844 C 176.523438 244.207031 176.632812 243.460938 176.78125 242.714844 C 176.929688 241.972656 177.113281 241.238281 177.335938 240.511719 C 177.554688 239.789062 177.808594 239.074219 178.101562 238.375 C 178.390625 237.675781 178.714844 236.988281 179.070312 236.320312 C 179.429688 235.652344 179.820312 235.003906 180.242188 234.375 C 180.660156 233.742188 181.113281 233.136719 181.59375 232.550781 C 182.074219 231.964844 182.585938 231.402344 183.121094 230.867188 C 183.65625 230.332031 184.21875 229.820312 184.804688 229.339844 C 185.390625 228.859375 186 228.410156 186.628906 227.988281 C 187.261719 227.566406 187.910156 227.175781 188.582031 226.820312 C 189.25 226.460938 189.933594 226.140625 190.636719 225.847656 C 191.335938 225.558594 192.050781 225.304688 192.773438 225.082031 C 193.5 224.863281 194.234375 224.679688 194.980469 224.53125 C 195.722656 224.382812 196.472656 224.273438 197.230469 224.199219 C 197.984375 224.125 198.742188 224.085938 199.5 224.085938 L 261.992188 224.085938 C 262.75 224.085938 263.507812 224.125 264.261719 224.199219 C 265.019531 224.273438 265.765625 224.382812 266.511719 224.53125 C 267.253906 224.679688 267.992188 224.863281 268.714844 225.082031 C 269.441406 225.304688 270.15625 225.558594 270.855469 225.847656 C 271.558594 226.140625 272.242188 226.460938 272.910156 226.820312 C 273.582031 227.175781 274.230469 227.566406 274.859375 227.988281 C 275.492188 228.410156 276.101562 228.859375 276.6875 229.339844 C 277.273438 229.820312 277.835938 230.332031 278.371094 230.867188 C 278.90625 231.402344 279.417969 231.964844 279.898438 232.550781 C 280.378906 233.136719 280.832031 233.742188 281.25 234.375 C 281.671875 235.003906 282.0625 235.652344 282.421875 236.320312 C 282.777344 236.988281 283.101562 237.675781 283.390625 238.375 C 283.683594 239.074219 283.9375 239.789062 284.15625 240.511719 C 284.378906 241.238281 284.5625 241.972656 284.710938 242.714844 C 284.859375 243.460938 284.96875 244.207031 285.042969 244.964844 C 285.117188 245.71875 285.15625 246.472656 285.15625 247.230469 Z M 285.15625 247.230469 " fill-opacity="0.1" fill-rule="nonzero"/><path fill="#ff5959" d="M 230.746094 224.085938 L 261.992188 224.085938 C 262.75 224.085938 263.507812 224.125 264.261719 224.199219 C 265.019531 224.273438 265.765625 224.382812 266.511719 224.53125 C 267.253906 224.679688 267.992188 224.863281 268.714844 225.082031 C 269.441406 225.304688 270.15625 225.558594 270.855469 225.847656 C 271.558594 226.140625 272.242188 226.460938 272.910156 226.820312 C 273.582031 227.175781 274.230469 227.566406 274.859375 227.988281 C 275.492188 228.410156 276.101562 228.859375 276.6875 229.339844 C 277.273438 229.820312 277.835938 230.332031 278.371094 230.867188 C 278.90625 231.402344 279.417969 231.964844 279.898438 232.550781 C 280.378906 233.136719 280.832031 233.742188 281.25 234.375 C 281.671875 235.003906 282.0625 235.652344 282.421875 236.320312 C 282.777344 236.988281 283.101562 237.675781 283.390625 238.375 C 283.683594 239.074219 283.9375 239.789062 284.15625 240.511719 C 284.378906 241.238281 284.5625 241.972656 284.710938 242.714844 C 284.859375 243.460938 284.96875 244.207031 285.042969 244.964844 C 285.117188 245.71875 285.15625 246.472656 285.15625 247.230469 C 285.15625 247.988281 285.117188 248.746094 285.042969 249.5 C 284.96875 250.253906 284.859375 251.003906 284.710938 251.746094 C 284.5625 252.492188 284.378906 253.226562 284.15625 253.949219 C 283.9375 254.675781 283.683594 255.386719 283.390625 256.089844 C 283.101562 256.789062 282.777344 257.472656 282.421875 258.140625 C 282.0625 258.808594 281.671875 259.460938 281.25 260.089844 C 280.832031 260.71875 280.378906 261.328125 279.898438 261.914062 C 279.417969 262.5 278.90625 263.0625 278.371094 263.597656 C 277.835938 264.132812 277.273438 264.640625 276.6875 265.121094 C 276.101562 265.601562 275.492188 266.054688 274.859375 266.476562 C 274.230469 266.898438 273.582031 267.285156 272.910156 267.644531 C 272.242188 268 271.558594 268.324219 270.855469 268.613281 C 270.15625 268.90625 269.441406 269.160156 268.714844 269.378906 C 267.992188 269.597656 267.253906 269.785156 266.511719 269.929688 C 265.765625 270.078125 265.019531 270.191406 264.261719 270.265625 C 263.507812 270.339844 262.75 270.375 261.992188 270.375 L 230.746094 270.375 Z M 230.746094 224.085938 " fill-opacity="1" fill-rule="nonzero"/><path fill="#191919" d="M 261.992188 261.1875 L 199.5 261.1875 C 198.171875 261.1875 196.855469 261.074219 195.550781 260.847656 C 194.242188 260.625 192.964844 260.289062 191.714844 259.84375 C 190.464844 259.398438 189.261719 258.847656 188.109375 258.195312 C 186.953125 257.542969 185.863281 256.800781 184.835938 255.960938 C 183.808594 255.121094 182.859375 254.199219 181.992188 253.199219 C 181.125 252.199219 180.347656 251.128906 179.664062 249.996094 C 178.976562 248.859375 178.394531 247.675781 177.914062 246.4375 C 177.433594 245.203125 177.058594 243.9375 176.796875 242.636719 C 176.628906 243.476562 176.503906 244.320312 176.429688 245.171875 C 176.351562 246.023438 176.324219 246.875 176.34375 247.730469 C 176.363281 248.582031 176.425781 249.433594 176.539062 250.28125 C 176.652344 251.128906 176.8125 251.964844 177.019531 252.796875 C 177.222656 253.625 177.476562 254.441406 177.773438 255.242188 C 178.066406 256.042969 178.40625 256.824219 178.789062 257.589844 C 179.171875 258.355469 179.597656 259.09375 180.0625 259.8125 C 180.527344 260.527344 181.03125 261.21875 181.570312 261.878906 C 182.113281 262.539062 182.691406 263.171875 183.300781 263.769531 C 183.914062 264.367188 184.554688 264.925781 185.226562 265.453125 C 185.902344 265.980469 186.601562 266.46875 187.328125 266.917969 C 188.058594 267.367188 188.808594 267.773438 189.578125 268.140625 C 190.351562 268.507812 191.144531 268.828125 191.953125 269.105469 C 192.761719 269.386719 193.582031 269.617188 194.414062 269.808594 C 195.25 269.996094 196.089844 270.136719 196.941406 270.230469 C 197.792969 270.324219 198.644531 270.371094 199.5 270.371094 L 261.992188 270.371094 C 262.847656 270.371094 263.699219 270.324219 264.550781 270.230469 C 265.398438 270.136719 266.242188 269.996094 267.078125 269.808594 C 267.910156 269.621094 268.730469 269.386719 269.539062 269.109375 C 270.347656 268.828125 271.140625 268.507812 271.914062 268.140625 C 272.683594 267.773438 273.433594 267.367188 274.164062 266.917969 C 274.890625 266.46875 275.589844 265.980469 276.265625 265.453125 C 276.9375 264.929688 277.578125 264.367188 278.191406 263.769531 C 278.800781 263.171875 279.378906 262.539062 279.921875 261.878906 C 280.460938 261.21875 280.964844 260.527344 281.429688 259.8125 C 281.894531 259.09375 282.320312 258.355469 282.703125 257.589844 C 283.085938 256.824219 283.425781 256.042969 283.722656 255.242188 C 284.015625 254.441406 284.269531 253.625 284.472656 252.796875 C 284.679688 251.964844 284.839844 251.128906 284.953125 250.28125 C 285.066406 249.433594 285.132812 248.582031 285.148438 247.730469 C 285.167969 246.875 285.140625 246.023438 285.0625 245.171875 C 284.988281 244.320312 284.867188 243.476562 284.695312 242.636719 C 284.433594 243.9375 284.058594 245.203125 283.578125 246.4375 C 283.097656 247.675781 282.515625 248.859375 281.828125 249.996094 C 281.144531 251.128906 280.367188 252.199219 279.5 253.199219 C 278.632812 254.199219 277.683594 255.121094 276.65625 255.960938 C 275.628906 256.800781 274.539062 257.542969 273.382812 258.195312 C 272.230469 258.847656 271.027344 259.398438 269.777344 259.84375 C 268.527344 260.289062 267.25 260.625 265.941406 260.847656 C 264.636719 261.074219 263.320312 261.1875 261.992188 261.1875 Z M 261.992188 261.1875 " fill-opacity="0.1" fill-rule="nonzero"/><path fill="#f5f5f5" d="M 239.9375 234.003906 C 239.9375 234.269531 239.914062 234.535156 239.859375 234.792969 C 239.808594 235.054688 239.730469 235.308594 239.628906 235.550781 C 239.527344 235.796875 239.402344 236.03125 239.257812 236.25 C 239.109375 236.472656 238.941406 236.675781 238.753906 236.863281 C 238.566406 237.050781 238.363281 237.21875 238.140625 237.367188 C 237.917969 237.515625 237.6875 237.636719 237.441406 237.738281 C 237.195312 237.839844 236.941406 237.917969 236.683594 237.96875 C 236.421875 238.023438 236.160156 238.046875 235.894531 238.046875 L 197.292969 238.046875 C 197.027344 238.046875 196.765625 238.023438 196.503906 237.96875 C 196.242188 237.917969 195.988281 237.84375 195.746094 237.738281 C 195.5 237.636719 195.265625 237.515625 195.046875 237.367188 C 194.824219 237.21875 194.621094 237.050781 194.433594 236.863281 C 194.246094 236.675781 194.078125 236.472656 193.929688 236.25 C 193.78125 236.03125 193.65625 235.796875 193.554688 235.550781 C 193.453125 235.308594 193.378906 235.054688 193.324219 234.792969 C 193.273438 234.535156 193.246094 234.269531 193.246094 234.003906 C 193.25 233.738281 193.273438 233.476562 193.328125 233.21875 C 193.378906 232.957031 193.457031 232.703125 193.558594 232.460938 C 193.660156 232.214844 193.785156 231.980469 193.929688 231.761719 C 194.078125 231.539062 194.246094 231.335938 194.433594 231.148438 C 194.621094 230.960938 194.824219 230.792969 195.046875 230.648438 C 195.269531 230.5 195.5 230.375 195.746094 230.273438 C 195.992188 230.171875 196.242188 230.097656 196.503906 230.042969 C 196.765625 229.992188 197.027344 229.964844 197.292969 229.964844 L 235.894531 229.964844 C 236.160156 229.964844 236.421875 229.992188 236.683594 230.042969 C 236.941406 230.097656 237.195312 230.171875 237.441406 230.273438 C 237.6875 230.375 237.917969 230.5 238.140625 230.648438 C 238.359375 230.796875 238.566406 230.964844 238.753906 231.152344 C 238.941406 231.339844 239.109375 231.542969 239.253906 231.761719 C 239.402344 231.984375 239.527344 232.214844 239.628906 232.460938 C 239.730469 232.707031 239.808594 232.957031 239.859375 233.21875 C 239.910156 233.480469 239.9375 233.742188 239.9375 234.007812 Z M 239.9375 234.003906 " fill-opacity="1" fill-rule="nonzero"/><path fill="#f5f5f5" d="M 234.167969 200.117188 C 234.582031 200.753906 234.96875 201.40625 235.320312 202.078125 C 235.671875 202.746094 235.992188 203.433594 236.277344 204.136719 C 236.5625 204.839844 236.808594 205.554688 237.023438 206.28125 C 237.238281 207.007812 237.417969 207.746094 237.558594 208.488281 C 237.703125 209.234375 237.808594 209.984375 237.875 210.738281 C 237.945312 211.492188 237.976562 212.25 237.96875 213.007812 C 237.964844 213.765625 237.917969 214.519531 237.839844 215.273438 C 237.757812 216.027344 237.640625 216.777344 237.488281 217.519531 C 237.335938 218.261719 237.144531 218.992188 236.917969 219.71875 C 236.691406 220.441406 236.429688 221.152344 236.136719 221.851562 C 235.839844 222.546875 235.511719 223.230469 235.148438 223.894531 C 234.785156 224.5625 234.390625 225.207031 233.964844 225.832031 C 233.535156 226.460938 233.082031 227.066406 232.59375 227.648438 C 232.109375 228.230469 231.59375 228.785156 231.054688 229.316406 C 230.515625 229.847656 229.949219 230.351562 229.359375 230.828125 C 228.769531 231.304688 228.15625 231.753906 227.523438 232.167969 L 175.289062 266.445312 C 174.652344 266.863281 174 267.246094 173.328125 267.597656 C 172.65625 267.949219 171.96875 268.269531 171.265625 268.554688 C 170.5625 268.839844 169.847656 269.085938 169.121094 269.300781 C 168.394531 269.515625 167.65625 269.695312 166.910156 269.835938 C 166.167969 269.980469 165.414062 270.082031 164.660156 270.152344 C 163.90625 270.21875 163.148438 270.25 162.390625 270.246094 C 161.628906 270.238281 160.875 270.195312 160.121094 270.117188 C 159.367188 270.035156 158.617188 269.917969 157.875 269.765625 C 157.132812 269.613281 156.398438 269.421875 155.675781 269.195312 C 154.949219 268.96875 154.238281 268.710938 153.539062 268.414062 C 152.839844 268.117188 152.160156 267.789062 151.492188 267.425781 C 150.828125 267.0625 150.179688 266.667969 149.550781 266.242188 C 148.925781 265.816406 148.320312 265.363281 147.738281 264.875 C 147.15625 264.390625 146.597656 263.878906 146.066406 263.335938 C 145.535156 262.796875 145.027344 262.234375 144.550781 261.644531 C 144.074219 261.054688 143.628906 260.441406 143.214844 259.808594 C 142.796875 259.175781 142.414062 258.523438 142.058594 257.851562 C 141.707031 257.179688 141.390625 256.492188 141.105469 255.789062 C 140.820312 255.085938 140.570312 254.371094 140.355469 253.644531 C 140.140625 252.917969 139.964844 252.183594 139.820312 251.4375 C 139.679688 250.695312 139.574219 249.945312 139.507812 249.1875 C 139.4375 248.433594 139.40625 247.679688 139.414062 246.921875 C 139.417969 246.164062 139.460938 245.40625 139.542969 244.652344 C 139.625 243.898438 139.742188 243.152344 139.894531 242.410156 C 140.046875 241.667969 140.238281 240.933594 140.464844 240.210938 C 140.691406 239.488281 140.949219 238.777344 141.246094 238.078125 C 141.542969 237.378906 141.871094 236.699219 142.234375 236.03125 C 142.597656 235.367188 142.992188 234.722656 143.417969 234.09375 C 143.84375 233.46875 144.300781 232.863281 144.789062 232.28125 C 145.273438 231.699219 145.785156 231.140625 146.328125 230.609375 C 146.867188 230.078125 147.433594 229.574219 148.023438 229.097656 C 148.613281 228.621094 149.226562 228.175781 149.859375 227.761719 L 202.09375 193.484375 C 202.730469 193.070312 203.382812 192.683594 204.054688 192.332031 C 204.726562 191.980469 205.414062 191.664062 206.117188 191.378906 C 206.816406 191.09375 207.535156 190.84375 208.261719 190.628906 C 208.988281 190.414062 209.726562 190.238281 210.46875 190.09375 C 211.214844 189.953125 211.964844 189.847656 212.71875 189.78125 C 213.476562 189.710938 214.234375 189.679688 214.992188 189.6875 C 215.75 189.691406 216.507812 189.734375 217.261719 189.816406 C 218.015625 189.894531 218.761719 190.011719 219.503906 190.164062 C 220.25 190.320312 220.980469 190.507812 221.707031 190.734375 C 222.429688 190.960938 223.140625 191.21875 223.839844 191.515625 C 224.539062 191.8125 225.222656 192.140625 225.886719 192.503906 C 226.554688 192.867188 227.199219 193.257812 227.828125 193.683594 C 228.453125 194.109375 229.058594 194.566406 229.640625 195.050781 C 230.226562 195.539062 230.78125 196.050781 231.3125 196.589844 C 231.847656 197.128906 232.351562 197.695312 232.828125 198.285156 C 233.304688 198.875 233.75 199.484375 234.167969 200.117188 Z M 234.167969 200.117188 " fill-opacity="1" fill-rule="nonzero"/><path fill="#191919" d="M 234.167969 200.117188 C 234.582031 200.753906 234.96875 201.40625 235.320312 202.078125 C 235.671875 202.746094 235.992188 203.433594 236.277344 204.136719 C 236.5625 204.839844 236.808594 205.554688 237.023438 206.28125 C 237.238281 207.007812 237.417969 207.746094 237.558594 208.488281 C 237.703125 209.234375 237.808594 209.984375 237.875 210.738281 C 237.945312 211.492188 237.976562 212.25 237.96875 213.007812 C 237.964844 213.765625 237.917969 214.519531 237.839844 215.273438 C 237.757812 216.027344 237.640625 216.777344 237.488281 217.519531 C 237.335938 218.261719 237.144531 218.992188 236.917969 219.71875 C 236.691406 220.441406 236.429688 221.152344 236.136719 221.851562 C 235.839844 222.546875 235.511719 223.230469 235.148438 223.894531 C 234.785156 224.5625 234.390625 225.207031 233.964844 225.832031 C 233.535156 226.460938 233.082031 227.066406 232.59375 227.648438 C 232.109375 228.230469 231.59375 228.785156 231.054688 229.316406 C 230.515625 229.847656 229.949219 230.351562 229.359375 230.828125 C 228.769531 231.304688 228.15625 231.753906 227.523438 232.167969 L 175.289062 266.445312 C 174.652344 266.863281 174 267.246094 173.328125 267.597656 C 172.65625 267.949219 171.96875 268.269531 171.265625 268.554688 C 170.5625 268.839844 169.847656 269.085938 169.121094 269.300781 C 168.394531 269.515625 167.65625 269.695312 166.910156 269.835938 C 166.167969 269.980469 165.414062 270.082031 164.660156 270.152344 C 163.90625 270.21875 163.148438 270.25 162.390625 270.246094 C 161.628906 270.238281 160.875 270.195312 160.121094 270.117188 C 159.367188 270.035156 158.617188 269.917969 157.875 269.765625 C 157.132812 269.613281 156.398438 269.421875 155.675781 269.195312 C 154.949219 268.96875 154.238281 268.710938 153.539062 268.414062 C 152.839844 268.117188 152.160156 267.789062 151.492188 267.425781 C 150.828125 267.0625 150.179688 266.667969 149.550781 266.242188 C 148.925781 265.816406 148.320312 265.363281 147.738281 264.875 C 147.15625 264.390625 146.597656 263.878906 146.066406 263.335938 C 145.535156 262.796875 145.027344 262.234375 144.550781 261.644531 C 144.074219 261.054688 143.628906 260.441406 143.214844 259.808594 C 142.796875 259.175781 142.414062 258.523438 142.058594 257.851562 C 141.707031 257.179688 141.390625 256.492188 141.105469 255.789062 C 140.820312 255.085938 140.570312 254.371094 140.355469 253.644531 C 140.140625 252.917969 139.964844 252.183594 139.820312 251.4375 C 139.679688 250.695312 139.574219 249.945312 139.507812 249.1875 C 139.4375 248.433594 139.40625 247.679688 139.414062 246.921875 C 139.417969 246.164062 139.460938 245.40625 139.542969 244.652344 C 139.625 243.898438 139.742188 243.152344 139.894531 242.410156 C 140.046875 241.667969 140.238281 240.933594 140.464844 240.210938 C 140.691406 239.488281 140.949219 238.777344 141.246094 238.078125 C 141.542969 237.378906 141.871094 236.699219 142.234375 236.03125 C 142.597656 235.367188 142.992188 234.722656 143.417969 234.09375 C 143.84375 233.46875 144.300781 232.863281 144.789062 232.28125 C 145.273438 231.699219 145.785156 231.140625 146.328125 230.609375 C 146.867188 230.078125 147.433594 229.574219 148.023438 229.097656 C 148.613281 228.621094 149.226562 228.175781 149.859375 227.761719 L 202.09375 193.484375 C 202.730469 193.070312 203.382812 192.683594 204.054688 192.332031 C 204.726562 191.980469 205.414062 191.664062 206.117188 191.378906 C 206.816406 191.09375 207.535156 190.84375 208.261719 190.628906 C 208.988281 190.414062 209.726562 190.238281 210.46875 190.09375 C 211.214844 189.953125 211.964844 189.847656 212.71875 189.78125 C 213.476562 189.710938 214.234375 189.679688 214.992188 189.6875 C 215.75 189.691406 216.507812 189.734375 217.261719 189.816406 C 218.015625 189.894531 218.761719 190.011719 219.503906 190.164062 C 220.25 190.320312 220.980469 190.507812 221.707031 190.734375 C 222.429688 190.960938 223.140625 191.21875 223.839844 191.515625 C 224.539062 191.8125 225.222656 192.140625 225.886719 192.503906 C 226.554688 192.867188 227.199219 193.257812 227.828125 193.683594 C 228.453125 194.109375 229.058594 194.566406 229.640625 195.050781 C 230.226562 195.539062 230.78125 196.050781 231.3125 196.589844 C 231.847656 197.128906 232.351562 197.695312 232.828125 198.285156 C 233.304688 198.875 233.75 199.484375 234.167969 200.117188 Z M 234.167969 200.117188 " fill-opacity="0.1" fill-rule="nonzero"/><path fill="#ff5959" d="M 175.976562 210.621094 L 202.09375 193.484375 C 202.730469 193.070312 203.382812 192.683594 204.054688 192.332031 C 204.726562 191.980469 205.414062 191.664062 206.117188 191.378906 C 206.816406 191.09375 207.535156 190.84375 208.261719 190.628906 C 208.988281 190.414062 209.726562 190.238281 210.46875 190.09375 C 211.214844 189.953125 211.964844 189.847656 212.71875 189.78125 C 213.476562 189.710938 214.234375 189.679688 214.992188 189.6875 C 215.75 189.691406 216.507812 189.734375 217.261719 189.816406 C 218.015625 189.894531 218.761719 190.011719 219.503906 190.164062 C 220.25 190.320312 220.980469 190.507812 221.707031 190.734375 C 222.429688 190.960938 223.140625 191.21875 223.839844 191.515625 C 224.539062 191.8125 225.222656 192.140625 225.886719 192.503906 C 226.554688 192.867188 227.199219 193.257812 227.828125 193.683594 C 228.453125 194.109375 229.058594 194.566406 229.640625 195.050781 C 230.226562 195.539062 230.78125 196.050781 231.3125 196.589844 C 231.847656 197.128906 232.351562 197.695312 232.828125 198.285156 C 233.304688 198.875 233.75 199.484375 234.167969 200.117188 C 234.582031 200.753906 234.96875 201.40625 235.320312 202.078125 C 235.671875 202.746094 235.992188 203.433594 236.277344 204.136719 C 236.5625 204.839844 236.808594 205.554688 237.023438 206.28125 C 237.238281 207.007812 237.417969 207.746094 237.558594 208.488281 C 237.703125 209.234375 237.808594 209.984375 237.875 210.738281 C 237.945312 211.492188 237.976562 212.25 237.96875 213.007812 C 237.964844 213.765625 237.917969 214.519531 237.839844 215.273438 C 237.757812 216.027344 237.640625 216.777344 237.488281 217.519531 C 237.335938 218.261719 237.144531 218.992188 236.917969 219.71875 C 236.691406 220.441406 236.429688 221.152344 236.136719 221.851562 C 235.839844 222.546875 235.511719 223.230469 235.148438 223.894531 C 234.785156 224.5625 234.390625 225.207031 233.964844 225.832031 C 233.535156 226.460938 233.082031 227.066406 232.59375 227.648438 C 232.109375 228.230469 231.59375 228.785156 231.054688 229.316406 C 230.515625 229.847656 229.949219 230.351562 229.359375 230.828125 C 228.769531 231.304688 228.15625 231.753906 227.523438 232.167969 L 201.40625 249.308594 Z M 175.976562 210.621094 " fill-opacity="1" fill-rule="nonzero"/><path fill="#191919" d="M 222.476562 224.488281 L 170.242188 258.769531 C 169.132812 259.5 167.972656 260.125 166.753906 260.65625 C 165.539062 261.183594 164.285156 261.605469 162.996094 261.917969 C 161.707031 262.230469 160.398438 262.429688 159.078125 262.519531 C 157.753906 262.609375 156.429688 262.582031 155.113281 262.445312 C 153.792969 262.308594 152.496094 262.058594 151.21875 261.699219 C 149.941406 261.335938 148.707031 260.871094 147.507812 260.296875 C 146.3125 259.722656 145.175781 259.050781 144.09375 258.285156 C 143.011719 257.515625 142.003906 256.660156 141.070312 255.71875 C 141.390625 256.511719 141.75 257.285156 142.15625 258.039062 C 142.558594 258.792969 143.003906 259.519531 143.488281 260.222656 C 143.976562 260.925781 144.496094 261.601562 145.058594 262.25 C 145.617188 262.894531 146.210938 263.507812 146.839844 264.089844 C 147.464844 264.667969 148.125 265.210938 148.8125 265.71875 C 149.5 266.226562 150.214844 266.695312 150.953125 267.125 C 151.695312 267.550781 152.453125 267.9375 153.238281 268.28125 C 154.019531 268.628906 154.820312 268.925781 155.636719 269.183594 C 156.453125 269.4375 157.28125 269.648438 158.117188 269.8125 C 158.957031 269.976562 159.804688 270.09375 160.65625 270.164062 C 161.507812 270.238281 162.363281 270.261719 163.21875 270.234375 C 164.070312 270.210938 164.921875 270.140625 165.769531 270.023438 C 166.617188 269.90625 167.453125 269.742188 168.285156 269.53125 C 169.113281 269.320312 169.925781 269.0625 170.726562 268.761719 C 171.527344 268.460938 172.308594 268.117188 173.070312 267.730469 C 173.835938 267.34375 174.574219 266.914062 175.289062 266.445312 L 227.523438 232.167969 C 228.238281 231.699219 228.925781 231.191406 229.582031 230.644531 C 230.242188 230.101562 230.867188 229.519531 231.460938 228.90625 C 232.054688 228.292969 232.613281 227.648438 233.136719 226.96875 C 233.660156 226.292969 234.144531 225.589844 234.589844 224.859375 C 235.03125 224.132812 235.4375 223.378906 235.796875 222.605469 C 236.160156 221.832031 236.476562 221.039062 236.75 220.230469 C 237.023438 219.417969 237.25 218.597656 237.433594 217.761719 C 237.617188 216.929688 237.753906 216.085938 237.839844 215.234375 C 237.929688 214.386719 237.972656 213.535156 237.96875 212.679688 C 237.960938 211.824219 237.910156 210.972656 237.808594 210.125 C 237.710938 209.277344 237.5625 208.433594 237.371094 207.601562 C 237.179688 206.769531 236.941406 205.953125 236.65625 205.144531 C 236.375 204.339844 236.046875 203.550781 235.675781 202.78125 C 235.304688 202.011719 234.890625 201.265625 234.4375 200.539062 C 233.984375 199.816406 233.492188 199.117188 232.960938 198.449219 C 232.429688 197.777344 231.863281 197.140625 231.261719 196.53125 C 231.753906 197.761719 232.140625 199.027344 232.417969 200.324219 C 232.691406 201.617188 232.855469 202.929688 232.90625 204.253906 C 232.957031 205.578125 232.898438 206.898438 232.722656 208.210938 C 232.546875 209.523438 232.257812 210.8125 231.863281 212.078125 C 231.464844 213.339844 230.960938 214.5625 230.355469 215.742188 C 229.746094 216.917969 229.042969 218.039062 228.246094 219.09375 C 227.445312 220.152344 226.5625 221.132812 225.59375 222.039062 C 224.625 222.945312 223.585938 223.761719 222.476562 224.488281 Z M 222.476562 224.488281 " fill-opacity="0.1" fill-rule="nonzero"/><path fill="#f5f5f5" d="M 189.109375 213.867188 C 189.257812 214.089844 189.378906 214.324219 189.480469 214.570312 C 189.578125 214.816406 189.652344 215.070312 189.703125 215.332031 C 189.753906 215.589844 189.777344 215.855469 189.773438 216.121094 C 189.773438 216.386719 189.746094 216.648438 189.691406 216.90625 C 189.636719 217.167969 189.558594 217.417969 189.453125 217.664062 C 189.351562 217.910156 189.226562 218.140625 189.074219 218.359375 C 188.925781 218.578125 188.757812 218.78125 188.566406 218.96875 C 188.378906 219.15625 188.171875 219.320312 187.949219 219.464844 L 155.6875 240.640625 C 155.464844 240.785156 155.230469 240.910156 154.984375 241.007812 C 154.738281 241.109375 154.484375 241.183594 154.222656 241.234375 C 153.960938 241.28125 153.699219 241.304688 153.433594 241.304688 C 153.167969 241.300781 152.902344 241.273438 152.644531 241.21875 C 152.382812 241.164062 152.132812 241.085938 151.886719 240.984375 C 151.640625 240.878906 151.410156 240.753906 151.191406 240.605469 C 150.96875 240.453125 150.769531 240.285156 150.582031 240.097656 C 150.394531 239.90625 150.230469 239.703125 150.082031 239.480469 C 149.9375 239.257812 149.816406 239.023438 149.714844 238.777344 C 149.617188 238.53125 149.542969 238.277344 149.492188 238.019531 C 149.441406 237.757812 149.417969 237.496094 149.421875 237.230469 C 149.421875 236.964844 149.449219 236.703125 149.503906 236.441406 C 149.558594 236.183594 149.636719 235.929688 149.742188 235.6875 C 149.84375 235.441406 149.972656 235.210938 150.121094 234.992188 C 150.269531 234.769531 150.4375 234.566406 150.628906 234.382812 C 150.816406 234.195312 151.023438 234.03125 151.246094 233.882812 L 183.507812 212.710938 C 183.730469 212.566406 183.964844 212.441406 184.210938 212.34375 C 184.457031 212.242188 184.710938 212.167969 184.972656 212.117188 C 185.230469 212.070312 185.496094 212.046875 185.761719 212.046875 C 186.027344 212.050781 186.289062 212.078125 186.550781 212.132812 C 186.808594 212.183594 187.0625 212.261719 187.304688 212.367188 C 187.550781 212.46875 187.785156 212.597656 188.003906 212.746094 C 188.222656 212.894531 188.425781 213.0625 188.613281 213.253906 C 188.800781 213.441406 188.964844 213.648438 189.109375 213.867188 Z M 189.109375 213.867188 " fill-opacity="1" fill-rule="nonzero"/></svg>