<svg xmlns="http://www.w3.org/2000/svg" xmlns:xlink="http://www.w3.org/1999/xlink" width="500" zoomAndPan="magnify" viewBox="0 0 375 374.999991" height="500" preserveAspectRatio="xMidYMid meet" version="1.0"><defs><clipPath id="e219ac390f"><path d="M 176 216 L 272.558594 216 L 272.558594 267 L 176 267 Z M 176 216 " clip-rule="nonzero"/></clipPath><clipPath id="b76657842f"><path d="M 245 240 L 272.558594 240 L 272.558594 267 L 245 267 Z M 245 240 " clip-rule="nonzero"/></clipPath><clipPath id="9a2e308c9e"><path d="M 250 250 L 272.558594 250 L 272.558594 267 L 250 267 Z M 250 250 " clip-rule="nonzero"/></clipPath><clipPath id="62d0f6aff1"><path d="M 111 102.308594 L 188 102.308594 L 188 127 L 111 127 Z M 111 102.308594 " clip-rule="nonzero"/></clipPath><clipPath id="0657b61907"><path d="M 102.308594 217 L 138 217 L 138 272.558594 L 102.308594 272.558594 Z M 102.308594 217 " clip-rule="nonzero"/></clipPath></defs><path fill="#829399" d="M 151.636719 237.609375 L 147.34375 237.609375 C 142.351562 237.609375 138.257812 233.515625 138.257812 228.523438 L 138.257812 221.433594 C 138.257812 220.636719 138.65625 219.835938 139.253906 219.238281 C 139.855469 218.640625 140.753906 218.4375 141.550781 218.539062 C 141.851562 218.539062 142.152344 218.539062 142.449219 218.539062 L 156.53125 218.539062 C 156.828125 218.539062 157.128906 218.539062 157.429688 218.539062 C 158.328125 218.4375 159.125 218.640625 159.726562 219.238281 C 160.425781 219.835938 160.722656 220.636719 160.722656 221.433594 L 160.722656 228.523438 C 160.722656 233.515625 156.628906 237.609375 151.636719 237.609375 Z M 151.636719 237.609375 " fill-opacity="1" fill-rule="evenodd"/><path fill="#fcb03b" d="M 168.910156 201.363281 L 130.167969 201.363281 C 128.769531 201.363281 127.574219 200.367188 127.273438 199.066406 C 125.773438 193.375 122.980469 190.582031 120.082031 187.585938 C 115.691406 182.992188 110.699219 177.800781 110.699219 163.21875 C 110.699219 141.851562 128.070312 124.476562 149.539062 124.476562 C 170.910156 124.476562 188.285156 141.851562 188.285156 163.21875 C 188.285156 177.800781 183.289062 182.992188 178.898438 187.585938 C 176 190.582031 173.304688 193.375 171.707031 199.066406 C 171.410156 200.367188 170.210938 201.363281 168.910156 201.363281 Z M 168.910156 201.363281 " fill-opacity="1" fill-rule="evenodd"/><path fill="#c6dcf2" d="M 156.53125 224.429688 L 142.449219 224.429688 C 134.761719 224.429688 128.472656 218.238281 128.472656 210.550781 C 128.472656 210.050781 128.472656 209.550781 128.472656 209.152344 C 128.472656 208.355469 128.769531 207.554688 129.371094 207.054688 C 129.871094 206.457031 130.667969 206.15625 131.46875 206.15625 L 167.515625 206.15625 C 168.3125 206.15625 169.113281 206.457031 169.710938 207.054688 C 170.210938 207.554688 170.507812 208.355469 170.507812 209.152344 C 170.507812 209.550781 170.507812 210.050781 170.507812 210.550781 C 170.507812 218.238281 164.21875 224.429688 156.53125 224.429688 Z M 156.53125 224.429688 " fill-opacity="1" fill-rule="evenodd"/><path fill="#829399" d="M 170.910156 212.046875 L 128.070312 212.046875 C 123.480469 212.046875 119.785156 208.355469 119.785156 203.761719 C 119.785156 199.167969 123.480469 195.375 128.070312 195.375 L 170.910156 195.375 C 175.503906 195.375 179.296875 199.167969 179.296875 203.761719 C 179.296875 208.355469 175.503906 212.046875 170.910156 212.046875 Z M 170.910156 212.046875 " fill-opacity="1" fill-rule="evenodd"/><path fill="#c7754f" d="M 249.992188 181.691406 C 248.792969 181.691406 247.894531 180.894531 247.695312 179.796875 C 238.710938 180.894531 199.867188 181.691406 198.769531 181.691406 C 197.46875 181.691406 196.472656 180.695312 196.472656 179.398438 L 196.472656 169.609375 C 196.472656 159.625 202.261719 150.839844 211.75 146.84375 C 220.335938 143.25 229.621094 144.347656 235.914062 149.539062 C 238.511719 148.640625 241.40625 149.042969 244 150.640625 C 248.695312 153.433594 252.289062 160.023438 252.289062 165.617188 L 252.289062 179.398438 C 252.289062 180.695312 251.289062 181.691406 249.992188 181.691406 Z M 249.992188 181.691406 " fill-opacity="1" fill-rule="evenodd"/><g clip-path="url(#e219ac390f)"><path fill="#00bbd3" d="M 250.292969 266.570312 L 198.667969 266.570312 L 198.667969 250.492188 L 176.800781 250.492188 C 178.796875 232.617188 188.984375 218.4375 202.0625 216.441406 C 203.0625 216.242188 204.160156 216.839844 204.558594 217.839844 L 214.046875 237.210938 L 222.632812 226.628906 C 223.53125 225.527344 225.429688 225.527344 226.328125 226.628906 L 234.914062 237.210938 L 244.5 217.742188 C 244.898438 216.839844 245.898438 216.242188 246.898438 216.441406 C 259.976562 218.4375 270.164062 232.617188 272.160156 250.492188 L 250.292969 250.492188 Z M 250.292969 266.570312 " fill-opacity="1" fill-rule="evenodd"/></g><path fill="#fa3c48" d="M 232.816406 266.570312 L 215.644531 266.570312 L 218.539062 246.097656 C 218.640625 244.902344 219.636719 244 220.835938 244 L 228.125 244 C 229.324219 244 230.320312 244.902344 230.421875 246.097656 Z M 232.816406 266.570312 " fill-opacity="1" fill-rule="evenodd"/><path fill="#cb313b" d="M 215.445312 235.515625 L 215.542969 235.316406 C 215.84375 235.015625 216.144531 234.816406 216.542969 234.714844 C 217.742188 234.214844 224.730469 228.023438 225.128906 229.222656 L 224.828125 230.722656 C 226.328125 230.722656 231.320312 234.316406 232.417969 234.714844 C 232.816406 234.816406 233.117188 235.113281 233.417969 235.414062 C 233.917969 236.011719 234.117188 236.914062 233.816406 237.710938 L 230.320312 247.195312 C 230.023438 248.097656 229.125 248.695312 228.125 248.695312 L 220.835938 248.695312 C 219.835938 248.695312 218.9375 248.097656 218.640625 247.195312 L 215.144531 237.710938 C 214.84375 236.914062 214.945312 236.113281 215.445312 235.515625 Z M 215.445312 235.515625 " fill-opacity="1" fill-rule="evenodd"/><path fill="#0097ab" d="M 198.96875 217.140625 C 199.765625 216.941406 200.664062 216.640625 201.464844 216.542969 L 201.066406 216.839844 C 200.066406 217.441406 199.765625 218.738281 200.265625 219.738281 L 211.351562 242.605469 C 211.75 243.304688 212.449219 243.800781 213.246094 243.902344 C 213.347656 243.902344 213.445312 243.902344 213.546875 243.902344 C 214.246094 243.902344 214.84375 243.601562 215.34375 243.003906 L 216.542969 241.503906 L 217.140625 243.101562 L 224.429688 234.117188 L 216.441406 244 C 215.742188 244.902344 214.644531 245.398438 213.546875 245.398438 C 213.347656 245.398438 213.246094 245.398438 213.046875 245.300781 C 211.75 245.199219 210.652344 244.402344 210.050781 243.203125 L 198.96875 220.4375 C 198.46875 219.339844 198.46875 218.140625 198.96875 217.140625 Z M 224.429688 231.820312 L 233.617188 243.003906 C 234.117188 243.601562 234.714844 243.902344 235.414062 243.902344 C 235.515625 243.902344 235.613281 243.902344 235.714844 243.902344 C 236.511719 243.800781 237.210938 243.304688 237.511719 242.605469 L 248.695312 219.738281 C 249.195312 218.738281 248.792969 217.441406 247.894531 216.839844 L 247.496094 216.542969 C 248.296875 216.640625 249.195312 216.839844 249.992188 217.140625 C 250.492188 218.140625 250.492188 219.339844 249.992188 220.4375 L 238.910156 243.203125 C 238.308594 244.402344 237.210938 245.199219 235.914062 245.300781 C 235.714844 245.398438 235.613281 245.398438 235.414062 245.398438 C 234.316406 245.398438 233.21875 244.902344 232.519531 244 L 231.820312 243.101562 L 232.417969 241.503906 Z M 224.429688 231.820312 " fill-opacity="1" fill-rule="evenodd"/><g clip-path="url(#b76657842f)"><path fill="#0097ab" d="M 271.363281 245.898438 C 271.660156 247.398438 271.960938 248.996094 272.160156 250.492188 L 250.292969 250.492188 L 250.292969 266.570312 L 245.597656 266.570312 L 245.597656 242.605469 C 245.597656 239.507812 250.292969 239.507812 250.292969 242.605469 L 250.292969 245.898438 Z M 271.363281 245.898438 " fill-opacity="1" fill-rule="evenodd"/></g><g clip-path="url(#9a2e308c9e)"><path fill="#f7ceb2" d="M 267.667969 266.570312 L 250.292969 266.570312 L 250.292969 250.492188 L 272.160156 250.492188 C 272.359375 252.589844 272.460938 254.785156 272.460938 256.984375 L 272.460938 260.578125 C 272.460938 263.972656 270.363281 266.570312 267.667969 266.570312 Z M 267.667969 266.570312 " fill-opacity="1" fill-rule="evenodd"/></g><path fill="#f7ceb2" d="M 211.351562 220.335938 C 210.050781 220.335938 209.054688 219.339844 209.054688 218.039062 L 209.054688 206.15625 C 209.054688 204.859375 210.050781 203.761719 211.351562 203.761719 C 212.25 203.761719 221.234375 204.359375 226.328125 205.058594 C 230.023438 204.359375 236.710938 203.761719 237.609375 203.761719 C 238.910156 203.761719 239.90625 204.859375 239.90625 206.15625 L 239.90625 218.039062 C 239.90625 219.339844 238.910156 220.335938 237.609375 220.335938 C 236.3125 220.335938 235.8125 222.332031 235.8125 221.035156 L 224.429688 228.425781 L 213.945312 220.4375 C 213.945312 221.734375 212.648438 220.335938 211.351562 220.335938 Z M 211.351562 220.335938 " fill-opacity="1" fill-rule="evenodd"/><path fill="#e8bda0" d="M 209.054688 209.152344 L 209.054688 206.15625 C 209.054688 204.859375 210.050781 203.761719 211.351562 203.761719 C 212.25 203.761719 221.234375 204.359375 226.328125 205.058594 C 230.023438 204.359375 236.710938 203.761719 237.609375 203.761719 C 238.910156 203.761719 239.90625 204.859375 239.90625 206.15625 L 239.90625 209.152344 C 235.8125 212.847656 230.421875 215.144531 224.429688 215.144531 C 218.539062 215.144531 213.148438 212.847656 209.054688 209.152344 Z M 209.054688 209.152344 " fill-opacity="1" fill-rule="evenodd"/><path fill="#e1ebfa" d="M 213.546875 243.902344 C 213.445312 243.902344 213.347656 243.902344 213.246094 243.902344 C 212.449219 243.800781 211.75 243.304688 211.351562 242.605469 L 200.265625 219.738281 C 199.765625 218.738281 200.066406 217.441406 201.066406 216.839844 L 206.355469 213.246094 C 207.253906 212.746094 208.355469 212.746094 209.152344 213.347656 L 224.429688 225.230469 L 239.808594 213.347656 C 240.605469 212.746094 241.707031 212.746094 242.605469 213.246094 L 247.894531 216.839844 C 248.792969 217.441406 249.195312 218.738281 248.695312 219.738281 L 237.511719 242.605469 C 237.210938 243.304688 236.511719 243.800781 235.714844 243.902344 C 235.613281 243.902344 235.515625 243.902344 235.414062 243.902344 C 234.714844 243.902344 234.117188 243.601562 233.617188 243.003906 L 224.429688 231.820312 L 215.34375 243.003906 C 214.84375 243.601562 214.246094 243.902344 213.546875 243.902344 Z M 213.546875 243.902344 " fill-opacity="1" fill-rule="evenodd"/><path fill="#e8bda0" d="M 205.160156 194.472656 L 203.5625 194.472656 C 198.769531 194.472656 194.875 190.679688 194.875 185.886719 L 194.875 183.691406 C 194.875 178.898438 198.769531 175.003906 203.5625 175.003906 L 205.160156 175.003906 C 206.457031 175.003906 207.457031 176.101562 207.457031 177.398438 L 207.457031 192.179688 C 207.457031 193.476562 206.457031 194.472656 205.160156 194.472656 Z M 245.398438 194.472656 L 243.800781 194.472656 C 242.503906 194.472656 241.503906 193.476562 241.503906 192.179688 L 241.503906 177.398438 C 241.503906 176.101562 242.503906 175.003906 243.800781 175.003906 L 245.398438 175.003906 C 250.191406 175.003906 254.085938 178.898438 254.085938 183.691406 L 254.085938 185.886719 C 254.085938 190.679688 250.191406 194.472656 245.398438 194.472656 Z M 245.398438 194.472656 " fill-opacity="1" fill-rule="evenodd"/><path fill="#0097ab" d="M 177.5 245.898438 C 177.199219 247.398438 177 248.996094 176.800781 250.492188 L 198.667969 250.492188 L 198.667969 266.570312 L 203.363281 266.570312 L 203.363281 242.605469 C 203.363281 239.507812 198.667969 239.507812 198.667969 242.605469 L 198.667969 245.898438 Z M 177.5 245.898438 " fill-opacity="1" fill-rule="evenodd"/><path fill="#f7ceb2" d="M 181.292969 266.570312 L 198.667969 266.570312 L 198.667969 250.492188 L 176.800781 250.492188 C 176.601562 252.589844 176.5 254.785156 176.5 256.984375 L 176.5 260.578125 C 176.5 263.972656 178.597656 266.570312 181.292969 266.570312 Z M 181.292969 266.570312 " fill-opacity="1" fill-rule="evenodd"/><path fill="#f7ceb2" d="M 224.429688 213.644531 C 212.546875 213.644531 202.761719 203.960938 202.761719 191.976562 L 202.761719 175.402344 C 202.761719 170.710938 206.558594 166.914062 211.25 166.914062 L 237.710938 166.914062 C 242.304688 166.914062 246.097656 170.710938 246.097656 175.402344 L 246.097656 191.976562 C 246.097656 203.960938 236.414062 213.644531 224.429688 213.644531 Z M 224.429688 213.644531 " fill-opacity="1" fill-rule="evenodd"/><g clip-path="url(#62d0f6aff1)"><path fill="#ff8600" d="M 149.539062 118.984375 C 148.042969 118.984375 146.84375 117.789062 146.84375 116.289062 L 146.84375 104.90625 C 146.84375 103.507812 148.042969 102.308594 149.539062 102.308594 C 150.9375 102.308594 152.136719 103.507812 152.136719 104.90625 L 152.136719 116.289062 C 152.136719 117.789062 150.9375 118.984375 149.539062 118.984375 Z M 119.683594 126.875 C 118.785156 126.875 117.886719 126.472656 117.386719 125.574219 L 111.695312 115.789062 C 110.996094 114.492188 111.394531 112.792969 112.695312 112.09375 C 113.992188 111.398438 115.589844 111.796875 116.289062 113.09375 L 121.980469 122.878906 C 122.679688 124.175781 122.28125 125.773438 120.980469 126.574219 C 120.582031 126.773438 120.183594 126.875 119.683594 126.875 Z M 179.296875 126.972656 C 178.796875 126.972656 178.398438 126.875 178 126.574219 C 176.699219 125.875 176.300781 124.277344 177 122.980469 L 182.691406 113.09375 C 183.390625 111.894531 184.988281 111.398438 186.285156 112.195312 C 187.585938 112.894531 187.984375 114.492188 187.285156 115.789062 L 181.59375 125.675781 C 181.09375 126.472656 180.195312 126.972656 179.296875 126.972656 Z M 179.296875 126.972656 " fill-opacity="1" fill-rule="evenodd"/></g><g clip-path="url(#0657b61907)"><path fill="#25a753" d="M 125.277344 272.558594 L 115.089844 272.558594 C 112.496094 272.558594 110.398438 270.464844 110.398438 267.964844 L 110.398438 243.402344 L 105.207031 243.402344 C 104.207031 243.402344 103.308594 242.902344 102.808594 242.003906 C 102.410156 241.105469 102.507812 240.007812 103.109375 239.207031 L 117.988281 218.839844 C 118.984375 217.441406 121.28125 217.441406 122.28125 218.839844 L 137.257812 239.207031 C 137.859375 240.007812 137.957031 241.105469 137.457031 242.003906 C 137.058594 242.902344 136.058594 243.402344 135.0625 243.402344 L 129.871094 243.402344 L 129.871094 267.964844 C 129.871094 270.464844 127.871094 272.558594 125.277344 272.558594 Z M 125.277344 272.558594 " fill-opacity="1" fill-rule="evenodd"/></g><path fill="#6166af" d="M 150.539062 191.378906 L 148.242188 191.378906 C 145.746094 191.378906 143.648438 189.382812 143.648438 186.785156 L 143.648438 183.589844 C 141.953125 183.089844 140.253906 182.390625 138.757812 181.492188 L 136.460938 183.789062 C 134.761719 185.488281 131.667969 185.488281 129.871094 183.789062 L 128.273438 182.09375 C 127.371094 181.292969 126.875 180.09375 126.875 178.898438 C 126.875 177.597656 127.371094 176.402344 128.273438 175.601562 L 130.566406 173.304688 C 129.667969 171.707031 129.070312 170.109375 128.570312 168.3125 L 125.375 168.3125 C 122.78125 168.3125 120.683594 166.214844 120.683594 163.71875 L 120.683594 161.421875 C 120.683594 158.828125 122.78125 156.730469 125.375 156.730469 L 128.570312 156.730469 C 129.070312 155.03125 129.769531 153.433594 130.667969 151.835938 L 128.371094 149.640625 C 126.574219 147.742188 126.574219 144.847656 128.371094 143.050781 L 129.96875 141.453125 C 131.765625 139.65625 134.863281 139.65625 136.558594 141.453125 L 138.855469 143.648438 C 140.453125 142.851562 142.050781 142.152344 143.75 141.652344 L 143.75 138.457031 C 143.75 135.960938 145.847656 133.863281 148.441406 133.863281 L 150.738281 133.863281 C 153.234375 133.863281 155.332031 135.960938 155.332031 138.457031 L 155.332031 141.652344 C 157.128906 142.152344 158.726562 142.851562 160.324219 143.75 L 162.519531 141.550781 C 164.320312 139.753906 167.3125 139.753906 169.113281 141.550781 L 170.710938 143.148438 C 172.507812 144.945312 172.507812 147.941406 170.710938 149.738281 L 168.511719 151.9375 C 169.410156 153.535156 170.109375 155.132812 170.609375 156.929688 L 173.605469 156.929688 C 176.203125 156.929688 178.296875 159.027344 178.296875 161.523438 L 178.296875 163.820312 C 178.296875 166.414062 176.203125 168.511719 173.605469 168.511719 L 170.507812 168.511719 C 170.011719 170.210938 169.3125 171.90625 168.414062 173.503906 L 170.609375 175.703125 C 172.40625 177.5 172.40625 180.394531 170.609375 182.191406 L 169.011719 183.890625 C 167.214844 185.585938 164.21875 185.585938 162.421875 183.890625 L 160.226562 181.59375 C 158.628906 182.492188 156.929688 183.191406 155.230469 183.691406 L 155.230469 186.785156 C 155.230469 189.382812 153.136719 191.378906 150.539062 191.378906 Z M 149.539062 172.207031 C 144.25 172.207031 139.855469 167.914062 139.855469 162.621094 C 139.855469 157.328125 144.25 153.035156 149.539062 153.035156 C 154.832031 153.035156 159.125 157.328125 159.125 162.621094 C 159.125 167.914062 154.832031 172.207031 149.539062 172.207031 Z M 149.539062 172.207031 " fill-opacity="1" fill-rule="evenodd"/><path fill="#3f4473" d="M 149.539062 175.601562 C 142.351562 175.601562 136.558594 169.8125 136.558594 162.621094 C 136.558594 155.53125 142.351562 149.738281 149.539062 149.738281 C 156.628906 149.738281 162.421875 155.53125 162.421875 162.621094 C 162.421875 169.8125 156.628906 175.601562 149.539062 175.601562 Z M 149.539062 172.207031 C 144.25 172.207031 139.855469 167.914062 139.855469 162.621094 C 139.855469 157.328125 144.25 153.035156 149.539062 153.035156 C 154.832031 153.035156 159.125 157.328125 159.125 162.621094 C 159.125 167.914062 154.832031 172.207031 149.539062 172.207031 Z M 149.539062 172.207031 " fill-opacity="1" fill-rule="evenodd"/><path fill="#ffffff" d="M 149.539062 172.207031 C 144.25 172.207031 139.855469 167.914062 139.855469 162.621094 C 139.855469 157.328125 144.25 153.035156 149.539062 153.035156 C 154.832031 153.035156 159.125 157.328125 159.125 162.621094 C 159.125 167.914062 154.832031 172.207031 149.539062 172.207031 Z M 149.539062 172.207031 " fill-opacity="1" fill-rule="evenodd"/></svg>